<svg width="128" height="128" viewBox="0 0 128 128" fill="none" xmlns="http://www.w3.org/2000/svg">
<path d="M112.75 33.75L86.5 26.25L79 0H26.5C20.2867 0 15.25 5.03675 15.25 11.25V116.75C15.25 122.963 20.2867 128 26.5 128H101.5C107.713 128 112.75 122.963 112.75 116.75V33.75Z" fill="#4086F4"/>
<path d="M112.75 33.75V116.75C112.75 122.963 107.713 128 101.5 128H64V0H79L86.5 26.25L112.75 33.75Z" fill="#4175DF"/>
<path d="M112.75 33.75H86.5C82.375 33.75 79 30.375 79 26.25V0C79.975 0 80.95 0.375 81.6247 1.12525L111.625 31.1252C112.375 31.8 112.75 32.775 112.75 33.75Z" fill="#80AEF8"/>
<path d="M86.5 60.25H41.5C39.4272 60.25 37.75 58.5728 37.75 56.5C37.75 54.4272 39.4272 52.75 41.5 52.75H86.5C88.5728 52.75 90.25 54.4272 90.25 56.5C90.25 58.5728 88.5728 60.25 86.5 60.25Z" fill="#FFF5F5"/>
<path d="M86.5 75.25H41.5C39.4272 75.25 37.75 73.5728 37.75 71.5C37.75 69.4272 39.4272 67.75 41.5 67.75H86.5C88.5728 67.75 90.25 69.4272 90.25 71.5C90.25 73.5728 88.5728 75.25 86.5 75.25Z" fill="#FFF5F5"/>
<path d="M86.5 90.25H41.5C39.4272 90.25 37.75 88.5728 37.75 86.5C37.75 84.4272 39.4272 82.75 41.5 82.75H86.5C88.5728 82.75 90.25 84.4272 90.25 86.5C90.25 88.5728 88.5728 90.25 86.5 90.25Z" fill="#FFF5F5"/>
<path d="M71.5 105.25H41.5C39.4272 105.25 37.75 103.573 37.75 101.5C37.75 99.4272 39.4272 97.75 41.5 97.75H71.5C73.5728 97.75 75.25 99.4272 75.25 101.5C75.25 103.573 73.5728 105.25 71.5 105.25Z" fill="#FFF5F5"/>
<path d="M64 105.25H71.5C73.5728 105.25 75.25 103.573 75.25 101.5C75.25 99.4272 73.5728 97.75 71.5 97.75H64V105.25Z" fill="#E3E7EA"/>
<path d="M64 90.25H86.5C88.5728 90.25 90.25 88.5728 90.25 86.5C90.25 84.4272 88.5728 82.75 86.5 82.75H64V90.25Z" fill="#E3E7EA"/>
<path d="M64 75.25H86.5C88.5728 75.25 90.25 73.5728 90.25 71.5C90.25 69.4272 88.5728 67.75 86.5 67.75H64V75.25Z" fill="#E3E7EA"/>
<path d="M64 60.25H86.5C88.5728 60.25 90.25 58.5728 90.25 56.5C90.25 54.4272 88.5728 52.75 86.5 52.75H64V60.25Z" fill="#E3E7EA"/>
</svg>
