<svg width="128" height="128" viewBox="0 0 128 128" fill="none" xmlns="http://www.w3.org/2000/svg">
<g clip-path="url(#clip0)">
<path d="M63.8867 40.4357L37.3211 86.5131H37.2461L52.6302 105.274L18.11 119.758C17.4343 119.383 16.909 118.857 16.6091 118.332L0.399203 88.3142C-0.426287 86.6629 0.249364 85.3874 0.474248 84.637L43.9253 9.59241C44.2252 9.14215 44.6755 8.69188 45.2761 8.31641H45.3511L67.6391 15.2208L63.8867 40.4357Z" fill="#59C36A"/>
<path d="M128 86.5133L97.907 105.274L90.7778 86.5133L63.8868 40.436L45.3508 8.31641C45.8756 7.94119 46.5513 7.71631 47.1519 7.71631H80.8717C81.6224 7.94119 83.1233 7.86615 84.0986 9.59242L127.55 84.637C127.85 85.1625 128 85.8377 128 86.5133Z" fill="#FFDA2D"/>
<path d="M84.0985 9.59267C83.1234 7.86639 81.6222 7.94144 80.8716 7.71655H63.8867V40.436L90.7777 86.5133L97.9069 105.274L128 86.5133C128 85.8377 127.849 85.1625 127.55 84.6372L84.0985 9.59267Z" fill="#FDBF00"/>
<path d="M128 86.5134C128 87.1886 127.85 87.8642 127.625 88.3145L111.415 118.332C110.814 119.308 109.389 120.283 108.113 120.283H19.9107C19.3101 120.283 18.6347 120.058 18.1096 119.758L37.246 86.5134H128Z" fill="#4086F4"/>
<path d="M63.8867 120.283H108.113C109.389 120.283 110.815 119.308 111.415 118.332L127.625 88.3145C127.85 87.8642 128 87.1886 128 86.5134H63.887V120.283H63.8867Z" fill="#4175DF"/>
</g>
<defs>
<clipPath id="clip0">
<rect width="128" height="128" fill="white"/>
</clipPath>
</defs>
</svg>
