<svg width="650" height="312" viewBox="0 0 650 312" fill="none" xmlns="http://www.w3.org/2000/svg">
<path opacity="0.8" fill-rule="evenodd" clip-rule="evenodd" d="M345.498 142.543C410.543 143.349 485.001 141.123 531.55 155.364C577.185 169.325 553.549 193.352 573.563 212.316C593.733 231.431 660.228 246.535 648.658 266.336C636.957 286.362 576.713 301.347 516.877 309.331C462.948 316.527 404.122 306.905 345.498 306.786C287.454 306.669 227.807 316.661 175.728 308.639C120.586 300.145 94.2628 281.054 66.766 263.852C34.4228 243.618 -12.7249 222.769 3.19081 200.699C19.4479 178.156 83.5302 161.642 148.426 150.617C208.112 140.477 277.639 141.703 345.498 142.543Z" fill="#FEF758"/>
<g filter="url(#filter0_d)">
<path d="M46 8C46 3.58173 49.5817 0 54 0H622C626.418 0 630 3.58172 630 8V258H46V8Z" fill="white"/>
</g>
<path d="M383 162C383 159.791 384.791 158 387 158H582C584.209 158 586 159.791 586 162V202C586 204.209 584.209 206 582 206H387C384.791 206 383 204.209 383 202V162Z" fill="white"/>
<path d="M415.641 185.708C415.281 186.177 414.782 186.533 414.144 186.774C413.506 187.016 412.781 187.137 411.97 187.137C411.136 187.137 410.397 186.948 409.755 186.569C409.112 186.191 408.616 185.651 408.265 184.949C407.918 184.243 407.738 183.42 407.725 182.481V181.702C407.725 180.198 408.085 179.025 408.805 178.182C409.525 177.334 410.53 176.91 411.819 176.91C412.927 176.91 413.806 177.184 414.458 177.73C415.11 178.277 415.502 179.066 415.634 180.096H413.938C413.747 178.897 413.052 178.298 411.854 178.298C411.079 178.298 410.489 178.578 410.083 179.139C409.682 179.695 409.475 180.513 409.461 181.593V182.358C409.461 183.434 409.687 184.27 410.138 184.867C410.593 185.46 411.225 185.756 412.031 185.756C412.915 185.756 413.544 185.555 413.918 185.154V183.206H411.867V181.894H415.641V185.708ZM420.918 187.137C419.865 187.137 419.01 186.806 418.354 186.146C417.703 185.48 417.377 184.596 417.377 183.493V183.288C417.377 182.55 417.518 181.891 417.801 181.312C418.088 180.729 418.489 180.276 419.004 179.952C419.519 179.629 420.093 179.467 420.726 179.467C421.733 179.467 422.51 179.788 423.057 180.431C423.609 181.073 423.884 181.982 423.884 183.158V183.828H419.051C419.102 184.439 419.304 184.922 419.66 185.277C420.02 185.633 420.471 185.811 421.013 185.811C421.774 185.811 422.394 185.503 422.873 184.888L423.768 185.742C423.472 186.184 423.076 186.528 422.579 186.774C422.087 187.016 421.533 187.137 420.918 187.137ZM420.719 180.8C420.264 180.8 419.895 180.959 419.612 181.278C419.334 181.597 419.156 182.042 419.079 182.611H422.244V182.488C422.207 181.932 422.059 181.513 421.8 181.23C421.54 180.943 421.18 180.8 420.719 180.8ZM427.001 179.604L427.049 180.458C427.596 179.797 428.314 179.467 429.203 179.467C430.743 179.467 431.527 180.349 431.554 182.112V187H429.893V182.208C429.893 181.739 429.79 181.392 429.585 181.169C429.385 180.941 429.054 180.827 428.594 180.827C427.924 180.827 427.425 181.13 427.097 181.736V187H425.436V179.604H427.001ZM436.79 187.137C435.737 187.137 434.883 186.806 434.227 186.146C433.575 185.48 433.249 184.596 433.249 183.493V183.288C433.249 182.55 433.39 181.891 433.673 181.312C433.96 180.729 434.361 180.276 434.876 179.952C435.391 179.629 435.965 179.467 436.599 179.467C437.606 179.467 438.383 179.788 438.93 180.431C439.481 181.073 439.757 181.982 439.757 183.158V183.828H434.924C434.974 184.439 435.177 184.922 435.532 185.277C435.892 185.633 436.344 185.811 436.886 185.811C437.647 185.811 438.267 185.503 438.745 184.888L439.641 185.742C439.345 186.184 438.948 186.528 438.451 186.774C437.959 187.016 437.405 187.137 436.79 187.137ZM436.592 180.8C436.136 180.8 435.767 180.959 435.485 181.278C435.207 181.597 435.029 182.042 434.951 182.611H438.116V182.488C438.08 181.932 437.932 181.513 437.672 181.23C437.412 180.943 437.052 180.8 436.592 180.8ZM445.205 181.121C444.986 181.085 444.761 181.066 444.528 181.066C443.767 181.066 443.254 181.358 442.99 181.941V187H441.329V179.604H442.915L442.956 180.431C443.357 179.788 443.913 179.467 444.624 179.467C444.861 179.467 445.057 179.499 445.212 179.562L445.205 181.121ZM450.749 187C450.676 186.859 450.612 186.629 450.557 186.31C450.029 186.861 449.381 187.137 448.616 187.137C447.873 187.137 447.267 186.925 446.797 186.501C446.328 186.077 446.093 185.553 446.093 184.929C446.093 184.14 446.385 183.536 446.968 183.117C447.556 182.693 448.395 182.481 449.484 182.481H450.503V181.996C450.503 181.613 450.395 181.308 450.181 181.08C449.967 180.848 449.641 180.731 449.204 180.731C448.825 180.731 448.516 180.827 448.274 181.019C448.032 181.205 447.912 181.445 447.912 181.736H446.251C446.251 181.331 446.385 180.952 446.654 180.602C446.923 180.246 447.287 179.968 447.748 179.768C448.213 179.567 448.73 179.467 449.299 179.467C450.165 179.467 450.856 179.686 451.371 180.123C451.886 180.556 452.15 181.167 452.164 181.955V185.291C452.164 185.956 452.257 186.487 452.444 186.884V187H450.749ZM448.923 185.804C449.252 185.804 449.559 185.724 449.846 185.564C450.138 185.405 450.357 185.191 450.503 184.922V183.527H449.607C448.992 183.527 448.529 183.634 448.219 183.849C447.909 184.063 447.754 184.366 447.754 184.758C447.754 185.077 447.859 185.332 448.069 185.523C448.283 185.71 448.568 185.804 448.923 185.804ZM456.265 177.806V179.604H457.571V180.834H456.265V184.963C456.265 185.245 456.32 185.451 456.429 185.578C456.543 185.701 456.743 185.763 457.031 185.763C457.222 185.763 457.416 185.74 457.612 185.694V186.979C457.233 187.084 456.869 187.137 456.518 187.137C455.242 187.137 454.604 186.433 454.604 185.024V180.834H453.387V179.604H454.604V177.806H456.265ZM462.383 187.137C461.33 187.137 460.476 186.806 459.819 186.146C459.168 185.48 458.842 184.596 458.842 183.493V183.288C458.842 182.55 458.983 181.891 459.266 181.312C459.553 180.729 459.954 180.276 460.469 179.952C460.984 179.629 461.558 179.467 462.191 179.467C463.199 179.467 463.976 179.788 464.522 180.431C465.074 181.073 465.35 181.982 465.35 183.158V183.828H460.517C460.567 184.439 460.77 184.922 461.125 185.277C461.485 185.633 461.936 185.811 462.479 185.811C463.24 185.811 463.859 185.503 464.338 184.888L465.233 185.742C464.937 186.184 464.541 186.528 464.044 186.774C463.552 187.016 462.998 187.137 462.383 187.137ZM462.185 180.8C461.729 180.8 461.36 180.959 461.077 181.278C460.799 181.597 460.621 182.042 460.544 182.611H463.709V182.488C463.673 181.932 463.524 181.513 463.265 181.23C463.005 180.943 462.645 180.8 462.185 180.8ZM475.111 187C475.038 186.859 474.974 186.629 474.919 186.31C474.391 186.861 473.744 187.137 472.978 187.137C472.235 187.137 471.629 186.925 471.16 186.501C470.69 186.077 470.456 185.553 470.456 184.929C470.456 184.14 470.747 183.536 471.331 183.117C471.918 182.693 472.757 182.481 473.846 182.481H474.865V181.996C474.865 181.613 474.758 181.308 474.543 181.08C474.329 180.848 474.003 180.731 473.566 180.731C473.188 180.731 472.878 180.827 472.636 181.019C472.395 181.205 472.274 181.445 472.274 181.736H470.613C470.613 181.331 470.747 180.952 471.016 180.602C471.285 180.246 471.65 179.968 472.11 179.768C472.575 179.567 473.092 179.467 473.662 179.467C474.527 179.467 475.218 179.686 475.733 180.123C476.248 180.556 476.512 181.167 476.526 181.955V185.291C476.526 185.956 476.619 186.487 476.806 186.884V187H475.111ZM473.286 185.804C473.614 185.804 473.921 185.724 474.208 185.564C474.5 185.405 474.719 185.191 474.865 184.922V183.527H473.969C473.354 183.527 472.891 183.634 472.582 183.849C472.272 184.063 472.117 184.366 472.117 184.758C472.117 185.077 472.221 185.332 472.431 185.523C472.645 185.71 472.93 185.804 473.286 185.804ZM480.313 187H478.652V176.5H480.313V187ZM484.175 187H482.514V176.5H484.175V187ZM489.725 183.247C489.725 182.108 489.989 181.194 490.518 180.506C491.047 179.813 491.755 179.467 492.644 179.467C493.428 179.467 494.061 179.74 494.544 180.287V176.5H496.205V187H494.702L494.619 186.234C494.123 186.836 493.46 187.137 492.63 187.137C491.764 187.137 491.063 186.788 490.525 186.091C489.992 185.394 489.725 184.446 489.725 183.247ZM491.386 183.391C491.386 184.143 491.53 184.73 491.817 185.154C492.108 185.574 492.521 185.783 493.054 185.783C493.733 185.783 494.23 185.48 494.544 184.874V181.716C494.239 181.123 493.747 180.827 493.068 180.827C492.53 180.827 492.115 181.041 491.824 181.47C491.532 181.894 491.386 182.534 491.386 183.391ZM497.907 183.233C497.907 182.509 498.051 181.857 498.338 181.278C498.625 180.695 499.028 180.248 499.548 179.938C500.067 179.624 500.664 179.467 501.339 179.467C502.337 179.467 503.146 179.788 503.766 180.431C504.39 181.073 504.727 181.925 504.777 182.987L504.784 183.377C504.784 184.106 504.643 184.758 504.36 185.332C504.082 185.906 503.681 186.351 503.157 186.665C502.638 186.979 502.036 187.137 501.353 187.137C500.309 187.137 499.473 186.79 498.844 186.098C498.219 185.4 497.907 184.473 497.907 183.315V183.233ZM499.568 183.377C499.568 184.138 499.726 184.735 500.04 185.168C500.355 185.596 500.792 185.811 501.353 185.811C501.913 185.811 502.348 185.592 502.658 185.154C502.973 184.717 503.13 184.076 503.13 183.233C503.13 182.486 502.968 181.894 502.645 181.456C502.326 181.019 501.89 180.8 501.339 180.8C500.797 180.8 500.366 181.016 500.047 181.449C499.728 181.878 499.568 182.52 499.568 183.377ZM509.508 185.811C509.922 185.811 510.266 185.69 510.54 185.448C510.813 185.207 510.959 184.908 510.977 184.553H512.543C512.525 185.013 512.381 185.444 512.112 185.845C511.843 186.241 511.479 186.556 511.018 186.788C510.558 187.021 510.061 187.137 509.528 187.137C508.494 187.137 507.673 186.802 507.067 186.132C506.461 185.462 506.158 184.537 506.158 183.356V183.186C506.158 182.06 506.459 181.16 507.06 180.485C507.662 179.806 508.482 179.467 509.521 179.467C510.401 179.467 511.116 179.724 511.668 180.239C512.224 180.75 512.515 181.422 512.543 182.256H510.977C510.959 181.832 510.813 181.483 510.54 181.21C510.271 180.937 509.927 180.8 509.508 180.8C508.97 180.8 508.555 180.996 508.263 181.388C507.972 181.775 507.824 182.365 507.819 183.158V183.425C507.819 184.227 507.963 184.826 508.25 185.223C508.541 185.615 508.961 185.811 509.508 185.811ZM518.558 186.275C518.07 186.85 517.378 187.137 516.48 187.137C515.678 187.137 515.07 186.902 514.655 186.433C514.245 185.963 514.04 185.284 514.04 184.396V179.604H515.701V184.375C515.701 185.314 516.09 185.783 516.87 185.783C517.676 185.783 518.221 185.494 518.503 184.915V179.604H520.165V187H518.599L518.558 186.275ZM523.698 179.604L523.746 180.376C524.266 179.77 524.977 179.467 525.879 179.467C526.868 179.467 527.545 179.845 527.909 180.602C528.447 179.845 529.204 179.467 530.179 179.467C530.995 179.467 531.601 179.692 531.997 180.144C532.398 180.595 532.603 181.26 532.613 182.14V187H530.951V182.188C530.951 181.718 530.849 181.374 530.644 181.155C530.439 180.937 530.099 180.827 529.625 180.827C529.247 180.827 528.937 180.93 528.696 181.135C528.459 181.335 528.292 181.6 528.197 181.928L528.203 187H526.542V182.133C526.519 181.262 526.075 180.827 525.209 180.827C524.544 180.827 524.072 181.098 523.794 181.641V187H522.133V179.604H523.698ZM537.855 187.137C536.803 187.137 535.948 186.806 535.292 186.146C534.64 185.48 534.314 184.596 534.314 183.493V183.288C534.314 182.55 534.456 181.891 534.738 181.312C535.025 180.729 535.426 180.276 535.941 179.952C536.456 179.629 537.031 179.467 537.664 179.467C538.671 179.467 539.448 179.788 539.995 180.431C540.547 181.073 540.822 181.982 540.822 183.158V183.828H535.989C536.039 184.439 536.242 184.922 536.598 185.277C536.958 185.633 537.409 185.811 537.951 185.811C538.712 185.811 539.332 185.503 539.811 184.888L540.706 185.742C540.41 186.184 540.013 186.528 539.517 186.774C539.024 187.016 538.471 187.137 537.855 187.137ZM537.657 180.8C537.201 180.8 536.832 180.959 536.55 181.278C536.272 181.597 536.094 182.042 536.017 182.611H539.182V182.488C539.145 181.932 538.997 181.513 538.737 181.23C538.478 180.943 538.117 180.8 537.657 180.8ZM543.939 179.604L543.987 180.458C544.534 179.797 545.252 179.467 546.14 179.467C547.681 179.467 548.465 180.349 548.492 182.112V187H546.831V182.208C546.831 181.739 546.728 181.392 546.523 181.169C546.323 180.941 545.992 180.827 545.532 180.827C544.862 180.827 544.363 181.13 544.035 181.736V187H542.374V179.604H543.939ZM552.552 177.806V179.604H553.858V180.834H552.552V184.963C552.552 185.245 552.607 185.451 552.716 185.578C552.83 185.701 553.031 185.763 553.318 185.763C553.509 185.763 553.703 185.74 553.899 185.694V186.979C553.521 187.084 553.156 187.137 552.805 187.137C551.529 187.137 550.891 186.433 550.891 185.024V180.834H549.674V179.604H550.891V177.806H552.552ZM559.559 184.99C559.559 184.694 559.436 184.468 559.19 184.313C558.948 184.159 558.545 184.022 557.98 183.903C557.415 183.785 556.943 183.634 556.565 183.452C555.735 183.051 555.32 182.47 555.32 181.709C555.32 181.071 555.589 180.538 556.127 180.109C556.665 179.681 557.348 179.467 558.178 179.467C559.062 179.467 559.775 179.686 560.318 180.123C560.864 180.561 561.138 181.128 561.138 181.825H559.477C559.477 181.506 559.358 181.242 559.121 181.032C558.884 180.818 558.57 180.711 558.178 180.711C557.813 180.711 557.515 180.795 557.282 180.964C557.054 181.132 556.941 181.358 556.941 181.641C556.941 181.896 557.048 182.094 557.262 182.235C557.476 182.377 557.909 182.52 558.561 182.666C559.212 182.807 559.723 182.978 560.092 183.179C560.466 183.375 560.741 183.612 560.919 183.89C561.101 184.168 561.193 184.505 561.193 184.901C561.193 185.567 560.917 186.107 560.365 186.521C559.814 186.932 559.092 187.137 558.198 187.137C557.592 187.137 557.052 187.027 556.578 186.809C556.104 186.59 555.735 186.289 555.471 185.906C555.207 185.523 555.074 185.111 555.074 184.669H556.688C556.71 185.061 556.859 185.364 557.132 185.578C557.405 185.788 557.768 185.893 558.219 185.893C558.656 185.893 558.989 185.811 559.217 185.646C559.445 185.478 559.559 185.259 559.559 184.99Z" fill="#1C73E7"/>
<path d="M387 159H582V157H387V159ZM585 162V202H587V162H585ZM582 205H387V207H582V205ZM384 202V162H382V202H384ZM387 205C385.343 205 384 203.657 384 202H382C382 204.761 384.239 207 387 207V205ZM585 202C585 203.657 583.657 205 582 205V207C584.761 207 587 204.761 587 202H585ZM582 159C583.657 159 585 160.343 585 162H587C587 159.239 584.761 157 582 157V159ZM387 157C384.239 157 382 159.239 382 162H384C384 160.343 385.343 159 387 159V157Z" fill="#BDBDBD"/>
<path d="M103.461 69.5469L103.508 70.6094C104.154 69.7969 104.997 69.3906 106.039 69.3906C107.826 69.3906 108.727 70.3984 108.742 72.4141V78H107.297V72.4062C107.292 71.7969 107.151 71.3464 106.875 71.0547C106.604 70.763 106.18 70.6172 105.602 70.6172C105.133 70.6172 104.721 70.7422 104.367 70.9922C104.013 71.2422 103.737 71.5703 103.539 71.9766V78H102.094V69.5469H103.461ZM116.461 78C116.377 77.8333 116.31 77.5365 116.257 77.1094C115.586 77.8073 114.784 78.1562 113.851 78.1562C113.018 78.1562 112.333 77.9219 111.797 77.4531C111.265 76.9792 111 76.3802 111 75.6562C111 74.776 111.333 74.0938 112 73.6094C112.672 73.1198 113.614 72.875 114.828 72.875H116.234V72.2109C116.234 71.7057 116.083 71.3047 115.781 71.0078C115.479 70.7057 115.034 70.5547 114.445 70.5547C113.929 70.5547 113.497 70.6849 113.148 70.9453C112.799 71.2057 112.625 71.5208 112.625 71.8906H111.172C111.172 71.4688 111.32 71.0625 111.617 70.6719C111.919 70.276 112.325 69.9635 112.836 69.7344C113.351 69.5052 113.916 69.3906 114.531 69.3906C115.505 69.3906 116.268 69.6354 116.82 70.125C117.372 70.6094 117.659 71.2786 117.679 72.1328V76.0234C117.679 76.7995 117.778 77.4167 117.976 77.875V78H116.461ZM114.062 76.8984C114.515 76.8984 114.945 76.7812 115.351 76.5469C115.757 76.3125 116.052 76.0078 116.234 75.6328V73.8984H115.101C113.33 73.8984 112.445 74.4167 112.445 75.4531C112.445 75.9062 112.596 76.2604 112.898 76.5156C113.2 76.7708 113.588 76.8984 114.062 76.8984ZM121.624 69.5469L121.663 70.4844C122.283 69.7552 123.119 69.3906 124.171 69.3906C125.354 69.3906 126.158 69.8438 126.585 70.75C126.867 70.3438 127.231 70.0156 127.679 69.7656C128.132 69.5156 128.666 69.3906 129.281 69.3906C131.135 69.3906 132.077 70.3724 132.109 72.3359V78H130.663V72.4219C130.663 71.8177 130.525 71.3672 130.249 71.0703C129.973 70.7682 129.51 70.6172 128.859 70.6172C128.322 70.6172 127.877 70.7786 127.523 71.1016C127.169 71.4193 126.963 71.849 126.906 72.3906V78H125.452V72.4609C125.452 71.2318 124.851 70.6172 123.648 70.6172C122.7 70.6172 122.051 71.0208 121.702 71.8281V78H120.257V69.5469H121.624ZM138.124 78.1562C136.978 78.1562 136.046 77.7812 135.327 77.0312C134.608 76.276 134.249 75.2682 134.249 74.0078V73.7422C134.249 72.9036 134.408 72.1562 134.726 71.5C135.049 70.8385 135.496 70.3229 136.069 69.9531C136.647 69.5781 137.272 69.3906 137.944 69.3906C139.043 69.3906 139.897 69.7526 140.507 70.4766C141.116 71.2005 141.421 72.237 141.421 73.5859V74.1875H135.694C135.715 75.0208 135.957 75.6953 136.421 76.2109C136.89 76.7214 137.483 76.9766 138.202 76.9766C138.713 76.9766 139.145 76.8724 139.499 76.6641C139.853 76.4557 140.163 76.1797 140.429 75.8359L141.312 76.5234C140.603 77.612 139.541 78.1562 138.124 78.1562ZM137.944 70.5781C137.361 70.5781 136.871 70.7917 136.476 71.2188C136.08 71.6406 135.835 72.2344 135.741 73H139.976V72.8906C139.934 72.1562 139.736 71.5885 139.382 71.1875C139.028 70.7812 138.549 70.5781 137.944 70.5781Z" fill="#5B5C5F"/>
<path d="M105.23 109.32V116H102.98V98.9375H109.273C111.141 98.9375 112.602 99.4141 113.656 100.367C114.719 101.32 115.25 102.582 115.25 104.152C115.25 105.809 114.73 107.086 113.691 107.984C112.66 108.875 111.18 109.32 109.25 109.32H105.23ZM105.23 107.48H109.273C110.477 107.48 111.398 107.199 112.039 106.637C112.68 106.066 113 105.246 113 104.176C113 103.16 112.68 102.348 112.039 101.738C111.398 101.129 110.52 100.812 109.402 100.789H105.23V107.48ZM125.949 116C125.824 115.75 125.722 115.305 125.644 114.664C124.636 115.711 123.433 116.234 122.035 116.234C120.785 116.234 119.757 115.883 118.953 115.18C118.156 114.469 117.757 113.57 117.757 112.484C117.757 111.164 118.257 110.141 119.257 109.414C120.265 108.68 121.679 108.312 123.5 108.312H125.609V107.316C125.609 106.559 125.382 105.957 124.929 105.512C124.476 105.059 123.808 104.832 122.925 104.832C122.152 104.832 121.503 105.027 120.98 105.418C120.457 105.809 120.195 106.281 120.195 106.836H118.015C118.015 106.203 118.238 105.594 118.683 105.008C119.136 104.414 119.746 103.945 120.511 103.602C121.285 103.258 122.132 103.086 123.054 103.086C124.515 103.086 125.66 103.453 126.488 104.188C127.316 104.914 127.746 105.918 127.777 107.199V113.035C127.777 114.199 127.925 115.125 128.222 115.812V116H125.949ZM122.351 114.348C123.031 114.348 123.675 114.172 124.285 113.82C124.894 113.469 125.335 113.012 125.609 112.449V109.848H123.91C121.253 109.848 119.925 110.625 119.925 112.18C119.925 112.859 120.152 113.391 120.605 113.773C121.058 114.156 121.64 114.348 122.351 114.348ZM139.483 114.746C138.64 115.738 137.401 116.234 135.769 116.234C134.417 116.234 133.386 115.844 132.675 115.062C131.972 114.273 131.616 113.109 131.608 111.57V103.32H133.776V111.512C133.776 113.434 134.558 114.395 136.12 114.395C137.776 114.395 138.878 113.777 139.425 112.543V103.32H141.593V116H139.53L139.483 114.746ZM147.733 116H145.565V98H147.733V116Z" fill="#5B5C5F"/>
<line x1="101" y1="123.5" x2="586" y2="123.5" stroke="#828282"/>
<defs>
<filter id="filter0_d" x="42" y="0" width="592" height="266" filterUnits="userSpaceOnUse" color-interpolation-filters="sRGB">
<feFlood flood-opacity="0" result="BackgroundImageFix"/>
<feColorMatrix in="SourceAlpha" type="matrix" values="0 0 0 0 0 0 0 0 0 0 0 0 0 0 0 0 0 0 127 0"/>
<feOffset dy="4"/>
<feGaussianBlur stdDeviation="2"/>
<feColorMatrix type="matrix" values="0 0 0 0 0 0 0 0 0 0 0 0 0 0 0 0 0 0 0.25 0"/>
<feBlend mode="normal" in2="BackgroundImageFix" result="effect1_dropShadow"/>
<feBlend mode="normal" in="SourceGraphic" in2="effect1_dropShadow" result="shape"/>
</filter>
</defs>
</svg>
