<svg width="698" height="317" viewBox="0 0 698 317" fill="none" xmlns="http://www.w3.org/2000/svg">
<path opacity="0.8" fill-rule="evenodd" clip-rule="evenodd" d="M306.334 191.876C389.827 192.628 484.363 179.344 550.305 188.59C616.677 197.895 568.404 217.771 593.925 232.197C619.19 246.479 703.982 256.945 697.665 271.89C690.892 287.913 636.708 303.592 560.24 311.893C485.845 319.969 392.343 316.589 306.334 314.373C231.614 312.447 154.534 309.485 100.291 300.04C49.6127 291.216 41.8943 277.774 25.3124 265.441C10.1327 254.15 5.59778 243.19 8.25422 231.584C12.004 215.201 -29.2943 193.785 43.946 184.028C116.992 174.298 215.561 191.058 306.334 191.876Z" fill="#1C73E7"/>
<g filter="url(#filter0_d)">
<path d="M12 8C12 3.58173 15.5817 0 20 0H588C592.418 0 596 3.58172 596 8V258H12V8Z" fill="white"/>
</g>
<path d="M58.3203 68V56.625H61.5312C62.5208 56.625 63.3958 56.8438 64.1562 57.2812C64.9167 57.7188 65.5026 58.3411 65.9141 59.1484C66.3307 59.9557 66.5417 60.8828 66.5469 61.9297V62.6562C66.5469 63.7292 66.3385 64.6693 65.9219 65.4766C65.5104 66.2839 64.9193 66.9036 64.1484 67.3359C63.3828 67.7682 62.4896 67.9896 61.4688 68H58.3203ZM59.8203 57.8594V66.7734H61.3984C62.5547 66.7734 63.4531 66.4141 64.0938 65.6953C64.7396 64.9766 65.0625 63.9531 65.0625 62.625V61.9609C65.0625 60.6693 64.7578 59.6667 64.1484 58.9531C63.5443 58.2344 62.6849 57.8698 61.5703 57.8594H59.8203ZM72.4216 68.1562C71.2757 68.1562 70.3434 67.7812 69.6247 67.0312C68.9059 66.276 68.5466 65.2682 68.5466 64.0078V63.7422C68.5466 62.9036 68.7054 62.1562 69.0231 61.5C69.346 60.8385 69.794 60.3229 70.3669 59.9531C70.945 59.5781 71.57 59.3906 72.2419 59.3906C73.3408 59.3906 74.195 59.7526 74.8044 60.4766C75.4137 61.2005 75.7184 62.237 75.7184 63.5859V64.1875H69.9919C70.0127 65.0208 70.2549 65.6953 70.7184 66.2109C71.1872 66.7214 71.7809 66.9766 72.4997 66.9766C73.0101 66.9766 73.4424 66.8724 73.7966 66.6641C74.1507 66.4557 74.4606 66.1797 74.7262 65.8359L75.6091 66.5234C74.9007 67.612 73.8382 68.1562 72.4216 68.1562ZM72.2419 60.5781C71.6585 60.5781 71.169 60.7917 70.7731 61.2188C70.3773 61.6406 70.1325 62.2344 70.0387 63H74.2731V62.8906C74.2315 62.1562 74.0335 61.5885 73.6794 61.1875C73.3252 60.7812 72.846 60.5781 72.2419 60.5781ZM82.9369 68C82.8535 67.8333 82.7858 67.5365 82.7337 67.1094C82.0619 67.8073 81.2598 68.1562 80.3275 68.1562C79.4942 68.1562 78.8093 67.9219 78.2728 67.4531C77.7416 66.9792 77.4759 66.3802 77.4759 65.6562C77.4759 64.776 77.8093 64.0938 78.4759 63.6094C79.1478 63.1198 80.0905 62.875 81.3041 62.875H82.7103V62.2109C82.7103 61.7057 82.5593 61.3047 82.2572 61.0078C81.9551 60.7057 81.5098 60.5547 80.9212 60.5547C80.4056 60.5547 79.9733 60.6849 79.6244 60.9453C79.2754 61.2057 79.1009 61.5208 79.1009 61.8906H77.6478C77.6478 61.4688 77.7962 61.0625 78.0931 60.6719C78.3952 60.276 78.8015 59.9635 79.3119 59.7344C79.8275 59.5052 80.3926 59.3906 81.0072 59.3906C81.9811 59.3906 82.7442 59.6354 83.2962 60.125C83.8483 60.6094 84.1348 61.2786 84.1556 62.1328V66.0234C84.1556 66.7995 84.2546 67.4167 84.4525 67.875V68H82.9369ZM80.5384 66.8984C80.9916 66.8984 81.4212 66.7812 81.8275 66.5469C82.2337 66.3125 82.528 66.0078 82.7103 65.6328V63.8984H81.5775C79.8067 63.8984 78.9212 64.4167 78.9212 65.4531C78.9212 65.9062 79.0723 66.2604 79.3744 66.5156C79.6765 66.7708 80.0645 66.8984 80.5384 66.8984ZM90.8272 60.8438C90.6084 60.8073 90.3715 60.7891 90.1162 60.7891C89.1683 60.7891 88.5251 61.1927 88.1866 62V68H86.7412V59.5469H88.1475L88.1709 60.5234C88.6449 59.7682 89.3168 59.3906 90.1866 59.3906C90.4678 59.3906 90.6814 59.4271 90.8272 59.5V60.8438ZM98.4984 63.5469V68H96.9984V56.625H101.194C102.439 56.625 103.412 56.9427 104.116 57.5781C104.824 58.2135 105.178 59.0547 105.178 60.1016C105.178 61.2057 104.832 62.0573 104.139 62.6562C103.452 63.25 102.465 63.5469 101.178 63.5469H98.4984ZM98.4984 62.3203H101.194C101.996 62.3203 102.61 62.1328 103.037 61.7578C103.465 61.3776 103.678 60.8307 103.678 60.1172C103.678 59.4401 103.465 58.8984 103.037 58.4922C102.61 58.0859 102.024 57.875 101.28 57.8594H98.4984V62.3203ZM112.311 68C112.227 67.8333 112.16 67.5365 112.107 67.1094C111.436 67.8073 110.634 68.1562 109.701 68.1562C108.868 68.1562 108.183 67.9219 107.647 67.4531C107.115 66.9792 106.85 66.3802 106.85 65.6562C106.85 64.776 107.183 64.0938 107.85 63.6094C108.522 63.1198 109.464 62.875 110.678 62.875H112.084V62.2109C112.084 61.7057 111.933 61.3047 111.631 61.0078C111.329 60.7057 110.884 60.5547 110.295 60.5547C109.779 60.5547 109.347 60.6849 108.998 60.9453C108.649 61.2057 108.475 61.5208 108.475 61.8906H107.022C107.022 61.4688 107.17 61.0625 107.467 60.6719C107.769 60.276 108.175 59.9635 108.686 59.7344C109.201 59.5052 109.766 59.3906 110.381 59.3906C111.355 59.3906 112.118 59.6354 112.67 60.125C113.222 60.6094 113.509 61.2786 113.529 62.1328V66.0234C113.529 66.7995 113.628 67.4167 113.826 67.875V68H112.311ZM109.912 66.8984C110.365 66.8984 110.795 66.7812 111.201 66.5469C111.607 66.3125 111.902 66.0078 112.084 65.6328V63.8984H110.951C109.18 63.8984 108.295 64.4167 108.295 65.4531C108.295 65.9062 108.446 66.2604 108.748 66.5156C109.05 66.7708 109.438 66.8984 109.912 66.8984ZM121.334 67.1641C120.771 67.8255 119.946 68.1562 118.857 68.1562C117.956 68.1562 117.269 67.8958 116.795 67.375C116.326 66.849 116.089 66.0729 116.084 65.0469V59.5469H117.529V65.0078C117.529 66.2891 118.05 66.9297 119.092 66.9297C120.196 66.9297 120.93 66.5182 121.295 65.6953V59.5469H122.74V68H121.365L121.334 67.1641ZM126.833 68H125.388V56H126.833V68ZM129.427 70.2656L128.607 69.7031C129.096 69.0208 129.351 68.3177 129.372 67.5938V66.2891H130.786V67.4219C130.786 67.9479 130.656 68.474 130.396 69C130.14 69.526 129.817 69.9479 129.427 70.2656Z" fill="#5B5C5F"/>
<rect x="58" y="104" width="481" height="11" rx="5.5" fill="#BDBDBD"/>
<rect x="58" y="133" width="481" height="11" rx="5.5" fill="#BDBDBD"/>
<rect x="58" y="162" width="481" height="11" rx="5.5" fill="#BDBDBD"/>
<rect x="58" y="191" width="481" height="11" rx="5.5" fill="#BDBDBD"/>
<g filter="url(#filter1_d)">
<path d="M32 28C32 23.5817 35.5817 20 40 20H608C612.418 20 616 23.5817 616 28V278H32V28Z" fill="white"/>
</g>
<path d="M78.3203 88V76.625H81.5312C82.5208 76.625 83.3958 76.8438 84.1562 77.2812C84.9167 77.7188 85.5026 78.3411 85.9141 79.1484C86.3307 79.9557 86.5417 80.8828 86.5469 81.9297V82.6562C86.5469 83.7292 86.3385 84.6693 85.9219 85.4766C85.5104 86.2839 84.9193 86.9036 84.1484 87.3359C83.3828 87.7682 82.4896 87.9896 81.4688 88H78.3203ZM79.8203 77.8594V86.7734H81.3984C82.5547 86.7734 83.4531 86.4141 84.0938 85.6953C84.7396 84.9766 85.0625 83.9531 85.0625 82.625V81.9609C85.0625 80.6693 84.7578 79.6667 84.1484 78.9531C83.5443 78.2344 82.6849 77.8698 81.5703 77.8594H79.8203ZM92.4216 88.1562C91.2757 88.1562 90.3434 87.7812 89.6247 87.0312C88.9059 86.276 88.5466 85.2682 88.5466 84.0078V83.7422C88.5466 82.9036 88.7054 82.1562 89.0231 81.5C89.346 80.8385 89.794 80.3229 90.3669 79.9531C90.945 79.5781 91.57 79.3906 92.2419 79.3906C93.3408 79.3906 94.195 79.7526 94.8044 80.4766C95.4137 81.2005 95.7184 82.237 95.7184 83.5859V84.1875H89.9919C90.0127 85.0208 90.2549 85.6953 90.7184 86.2109C91.1872 86.7214 91.7809 86.9766 92.4997 86.9766C93.0101 86.9766 93.4424 86.8724 93.7966 86.6641C94.1507 86.4557 94.4606 86.1797 94.7262 85.8359L95.6091 86.5234C94.9007 87.612 93.8382 88.1562 92.4216 88.1562ZM92.2419 80.5781C91.6585 80.5781 91.169 80.7917 90.7731 81.2188C90.3773 81.6406 90.1325 82.2344 90.0387 83H94.2731V82.8906C94.2315 82.1562 94.0335 81.5885 93.6794 81.1875C93.3252 80.7812 92.846 80.5781 92.2419 80.5781ZM102.937 88C102.854 87.8333 102.786 87.5365 102.734 87.1094C102.062 87.8073 101.26 88.1562 100.327 88.1562C99.4942 88.1562 98.8093 87.9219 98.2728 87.4531C97.7416 86.9792 97.4759 86.3802 97.4759 85.6562C97.4759 84.776 97.8093 84.0938 98.4759 83.6094C99.1478 83.1198 100.091 82.875 101.304 82.875H102.71V82.2109C102.71 81.7057 102.559 81.3047 102.257 81.0078C101.955 80.7057 101.51 80.5547 100.921 80.5547C100.406 80.5547 99.9733 80.6849 99.6244 80.9453C99.2754 81.2057 99.1009 81.5208 99.1009 81.8906H97.6478C97.6478 81.4688 97.7962 81.0625 98.0931 80.6719C98.3952 80.276 98.8015 79.9635 99.3119 79.7344C99.8275 79.5052 100.393 79.3906 101.007 79.3906C101.981 79.3906 102.744 79.6354 103.296 80.125C103.848 80.6094 104.135 81.2786 104.156 82.1328V86.0234C104.156 86.7995 104.255 87.4167 104.452 87.875V88H102.937ZM100.538 86.8984C100.992 86.8984 101.421 86.7812 101.827 86.5469C102.234 86.3125 102.528 86.0078 102.71 85.6328V83.8984H101.577C99.8067 83.8984 98.9212 84.4167 98.9212 85.4531C98.9212 85.9062 99.0723 86.2604 99.3744 86.5156C99.6765 86.7708 100.064 86.8984 100.538 86.8984ZM110.827 80.8438C110.608 80.8073 110.371 80.7891 110.116 80.7891C109.168 80.7891 108.525 81.1927 108.187 82V88H106.741V79.5469H108.147L108.171 80.5234C108.645 79.7682 109.317 79.3906 110.187 79.3906C110.468 79.3906 110.681 79.4271 110.827 79.5V80.8438ZM118.498 83.5469V88H116.998V76.625H121.194C122.439 76.625 123.412 76.9427 124.116 77.5781C124.824 78.2135 125.178 79.0547 125.178 80.1016C125.178 81.2057 124.832 82.0573 124.139 82.6562C123.452 83.25 122.465 83.5469 121.178 83.5469H118.498ZM118.498 82.3203H121.194C121.996 82.3203 122.61 82.1328 123.037 81.7578C123.465 81.3776 123.678 80.8307 123.678 80.1172C123.678 79.4401 123.465 78.8984 123.037 78.4922C122.61 78.0859 122.024 77.875 121.28 77.8594H118.498V82.3203ZM132.311 88C132.227 87.8333 132.16 87.5365 132.107 87.1094C131.436 87.8073 130.634 88.1562 129.701 88.1562C128.868 88.1562 128.183 87.9219 127.647 87.4531C127.115 86.9792 126.85 86.3802 126.85 85.6562C126.85 84.776 127.183 84.0938 127.85 83.6094C128.522 83.1198 129.464 82.875 130.678 82.875H132.084V82.2109C132.084 81.7057 131.933 81.3047 131.631 81.0078C131.329 80.7057 130.884 80.5547 130.295 80.5547C129.779 80.5547 129.347 80.6849 128.998 80.9453C128.649 81.2057 128.475 81.5208 128.475 81.8906H127.022C127.022 81.4688 127.17 81.0625 127.467 80.6719C127.769 80.276 128.175 79.9635 128.686 79.7344C129.201 79.5052 129.766 79.3906 130.381 79.3906C131.355 79.3906 132.118 79.6354 132.67 80.125C133.222 80.6094 133.509 81.2786 133.529 82.1328V86.0234C133.529 86.7995 133.628 87.4167 133.826 87.875V88H132.311ZM129.912 86.8984C130.365 86.8984 130.795 86.7812 131.201 86.5469C131.607 86.3125 131.902 86.0078 132.084 85.6328V83.8984H130.951C129.18 83.8984 128.295 84.4167 128.295 85.4531C128.295 85.9062 128.446 86.2604 128.748 86.5156C129.05 86.7708 129.438 86.8984 129.912 86.8984ZM141.334 87.1641C140.771 87.8255 139.946 88.1562 138.857 88.1562C137.956 88.1562 137.269 87.8958 136.795 87.375C136.326 86.849 136.089 86.0729 136.084 85.0469V79.5469H137.529V85.0078C137.529 86.2891 138.05 86.9297 139.092 86.9297C140.196 86.9297 140.93 86.5182 141.295 85.6953V79.5469H142.74V88H141.365L141.334 87.1641ZM146.833 88H145.388V76H146.833V88ZM149.427 90.2656L148.607 89.7031C149.096 89.0208 149.351 88.3177 149.372 87.5938V86.2891H150.786V87.4219C150.786 87.9479 150.656 88.474 150.396 89C150.14 89.526 149.817 89.9479 149.427 90.2656Z" fill="#5B5C5F"/>
<rect x="78" y="124" width="481" height="11" rx="5.5" fill="#BDBDBD"/>
<rect x="78" y="153" width="481" height="11" rx="5.5" fill="#BDBDBD"/>
<rect x="78" y="182" width="481" height="11" rx="5.5" fill="#BDBDBD"/>
<rect x="78" y="211" width="481" height="11" rx="5.5" fill="#BDBDBD"/>
<g filter="url(#filter2_d)">
<path d="M52 38C52 33.5817 55.5817 30 60 30H628C632.418 30 636 33.5817 636 38V288H52V38Z" fill="white"/>
</g>
<path d="M98.3203 98V86.625H101.531C102.521 86.625 103.396 86.8438 104.156 87.2812C104.917 87.7188 105.503 88.3411 105.914 89.1484C106.331 89.9557 106.542 90.8828 106.547 91.9297V92.6562C106.547 93.7292 106.339 94.6693 105.922 95.4766C105.51 96.2839 104.919 96.9036 104.148 97.3359C103.383 97.7682 102.49 97.9896 101.469 98H98.3203ZM99.8203 87.8594V96.7734H101.398C102.555 96.7734 103.453 96.4141 104.094 95.6953C104.74 94.9766 105.062 93.9531 105.062 92.625V91.9609C105.062 90.6693 104.758 89.6667 104.148 88.9531C103.544 88.2344 102.685 87.8698 101.57 87.8594H99.8203ZM112.422 98.1562C111.276 98.1562 110.343 97.7812 109.625 97.0312C108.906 96.276 108.547 95.2682 108.547 94.0078V93.7422C108.547 92.9036 108.705 92.1562 109.023 91.5C109.346 90.8385 109.794 90.3229 110.367 89.9531C110.945 89.5781 111.57 89.3906 112.242 89.3906C113.341 89.3906 114.195 89.7526 114.804 90.4766C115.414 91.2005 115.718 92.237 115.718 93.5859V94.1875H109.992C110.013 95.0208 110.255 95.6953 110.718 96.2109C111.187 96.7214 111.781 96.9766 112.5 96.9766C113.01 96.9766 113.442 96.8724 113.797 96.6641C114.151 96.4557 114.461 96.1797 114.726 95.8359L115.609 96.5234C114.901 97.612 113.838 98.1562 112.422 98.1562ZM112.242 90.5781C111.659 90.5781 111.169 90.7917 110.773 91.2188C110.377 91.6406 110.132 92.2344 110.039 93H114.273V92.8906C114.231 92.1562 114.034 91.5885 113.679 91.1875C113.325 90.7812 112.846 90.5781 112.242 90.5781ZM122.937 98C122.854 97.8333 122.786 97.5365 122.734 97.1094C122.062 97.8073 121.26 98.1562 120.327 98.1562C119.494 98.1562 118.809 97.9219 118.273 97.4531C117.742 96.9792 117.476 96.3802 117.476 95.6562C117.476 94.776 117.809 94.0938 118.476 93.6094C119.148 93.1198 120.091 92.875 121.304 92.875H122.71V92.2109C122.71 91.7057 122.559 91.3047 122.257 91.0078C121.955 90.7057 121.51 90.5547 120.921 90.5547C120.406 90.5547 119.973 90.6849 119.624 90.9453C119.275 91.2057 119.101 91.5208 119.101 91.8906H117.648C117.648 91.4688 117.796 91.0625 118.093 90.6719C118.395 90.276 118.801 89.9635 119.312 89.7344C119.827 89.5052 120.393 89.3906 121.007 89.3906C121.981 89.3906 122.744 89.6354 123.296 90.125C123.848 90.6094 124.135 91.2786 124.156 92.1328V96.0234C124.156 96.7995 124.255 97.4167 124.452 97.875V98H122.937ZM120.538 96.8984C120.992 96.8984 121.421 96.7812 121.827 96.5469C122.234 96.3125 122.528 96.0078 122.71 95.6328V93.8984H121.577C119.807 93.8984 118.921 94.4167 118.921 95.4531C118.921 95.9062 119.072 96.2604 119.374 96.5156C119.676 96.7708 120.064 96.8984 120.538 96.8984ZM130.827 90.8438C130.608 90.8073 130.371 90.7891 130.116 90.7891C129.168 90.7891 128.525 91.1927 128.187 92V98H126.741V89.5469H128.147L128.171 90.5234C128.645 89.7682 129.317 89.3906 130.187 89.3906C130.468 89.3906 130.681 89.4271 130.827 89.5V90.8438ZM138.498 93.5469V98H136.998V86.625H141.194C142.439 86.625 143.412 86.9427 144.116 87.5781C144.824 88.2135 145.178 89.0547 145.178 90.1016C145.178 91.2057 144.832 92.0573 144.139 92.6562C143.452 93.25 142.465 93.5469 141.178 93.5469H138.498ZM138.498 92.3203H141.194C141.996 92.3203 142.61 92.1328 143.037 91.7578C143.465 91.3776 143.678 90.8307 143.678 90.1172C143.678 89.4401 143.465 88.8984 143.037 88.4922C142.61 88.0859 142.024 87.875 141.28 87.8594H138.498V92.3203ZM152.311 98C152.227 97.8333 152.16 97.5365 152.107 97.1094C151.436 97.8073 150.634 98.1562 149.701 98.1562C148.868 98.1562 148.183 97.9219 147.647 97.4531C147.115 96.9792 146.85 96.3802 146.85 95.6562C146.85 94.776 147.183 94.0938 147.85 93.6094C148.522 93.1198 149.464 92.875 150.678 92.875H152.084V92.2109C152.084 91.7057 151.933 91.3047 151.631 91.0078C151.329 90.7057 150.884 90.5547 150.295 90.5547C149.779 90.5547 149.347 90.6849 148.998 90.9453C148.649 91.2057 148.475 91.5208 148.475 91.8906H147.022C147.022 91.4688 147.17 91.0625 147.467 90.6719C147.769 90.276 148.175 89.9635 148.686 89.7344C149.201 89.5052 149.766 89.3906 150.381 89.3906C151.355 89.3906 152.118 89.6354 152.67 90.125C153.222 90.6094 153.509 91.2786 153.529 92.1328V96.0234C153.529 96.7995 153.628 97.4167 153.826 97.875V98H152.311ZM149.912 96.8984C150.365 96.8984 150.795 96.7812 151.201 96.5469C151.607 96.3125 151.902 96.0078 152.084 95.6328V93.8984H150.951C149.18 93.8984 148.295 94.4167 148.295 95.4531C148.295 95.9062 148.446 96.2604 148.748 96.5156C149.05 96.7708 149.438 96.8984 149.912 96.8984ZM161.334 97.1641C160.771 97.8255 159.946 98.1562 158.857 98.1562C157.956 98.1562 157.269 97.8958 156.795 97.375C156.326 96.849 156.089 96.0729 156.084 95.0469V89.5469H157.529V95.0078C157.529 96.2891 158.05 96.9297 159.092 96.9297C160.196 96.9297 160.93 96.5182 161.295 95.6953V89.5469H162.74V98H161.365L161.334 97.1641ZM166.833 98H165.388V86H166.833V98ZM169.427 100.266L168.607 99.7031C169.096 99.0208 169.351 98.3177 169.372 97.5938V96.2891H170.786V97.4219C170.786 97.9479 170.656 98.474 170.396 99C170.14 99.526 169.817 99.9479 169.427 100.266Z" fill="#5B5C5F"/>
<rect x="98" y="134" width="481" height="11" rx="5.5" fill="#BDBDBD"/>
<rect x="98" y="163" width="481" height="11" rx="5.5" fill="#BDBDBD"/>
<rect x="98" y="192" width="481" height="11" rx="5.5" fill="#BDBDBD"/>
<rect x="98" y="221" width="481" height="11" rx="5.5" fill="#BDBDBD"/>
<defs>
<filter id="filter0_d" x="8" y="0" width="592" height="266" filterUnits="userSpaceOnUse" color-interpolation-filters="sRGB">
<feFlood flood-opacity="0" result="BackgroundImageFix"/>
<feColorMatrix in="SourceAlpha" type="matrix" values="0 0 0 0 0 0 0 0 0 0 0 0 0 0 0 0 0 0 127 0"/>
<feOffset dy="4"/>
<feGaussianBlur stdDeviation="2"/>
<feColorMatrix type="matrix" values="0 0 0 0 0 0 0 0 0 0 0 0 0 0 0 0 0 0 0.25 0"/>
<feBlend mode="normal" in2="BackgroundImageFix" result="effect1_dropShadow"/>
<feBlend mode="normal" in="SourceGraphic" in2="effect1_dropShadow" result="shape"/>
</filter>
<filter id="filter1_d" x="28" y="20" width="592" height="266" filterUnits="userSpaceOnUse" color-interpolation-filters="sRGB">
<feFlood flood-opacity="0" result="BackgroundImageFix"/>
<feColorMatrix in="SourceAlpha" type="matrix" values="0 0 0 0 0 0 0 0 0 0 0 0 0 0 0 0 0 0 127 0"/>
<feOffset dy="4"/>
<feGaussianBlur stdDeviation="2"/>
<feColorMatrix type="matrix" values="0 0 0 0 0 0 0 0 0 0 0 0 0 0 0 0 0 0 0.25 0"/>
<feBlend mode="normal" in2="BackgroundImageFix" result="effect1_dropShadow"/>
<feBlend mode="normal" in="SourceGraphic" in2="effect1_dropShadow" result="shape"/>
</filter>
<filter id="filter2_d" x="48" y="30" width="592" height="266" filterUnits="userSpaceOnUse" color-interpolation-filters="sRGB">
<feFlood flood-opacity="0" result="BackgroundImageFix"/>
<feColorMatrix in="SourceAlpha" type="matrix" values="0 0 0 0 0 0 0 0 0 0 0 0 0 0 0 0 0 0 127 0"/>
<feOffset dy="4"/>
<feGaussianBlur stdDeviation="2"/>
<feColorMatrix type="matrix" values="0 0 0 0 0 0 0 0 0 0 0 0 0 0 0 0 0 0 0.25 0"/>
<feBlend mode="normal" in2="BackgroundImageFix" result="effect1_dropShadow"/>
<feBlend mode="normal" in="SourceGraphic" in2="effect1_dropShadow" result="shape"/>
</filter>
</defs>
</svg>
