<svg width="677" height="287" viewBox="0 0 677 287" fill="none" xmlns="http://www.w3.org/2000/svg">
<path opacity="0.8" d="M70.754 191.685C67.656 198.334 72.0899 205.51 70.5518 212.376C68.6092 221.04 57.4738 227.783 45.4791 232.086C33.4843 236.389 20.0886 239.003 8.39716 243.638C3.34218 245.637 -1.92945 249.327 0.699139 252.72C1.60904 253.897 3.31329 254.72 4.98143 255.492C39.0376 271.202 81.1311 279.736 123.189 279.462C167.672 279.166 211.232 269.354 255.68 270.48C313.003 271.924 368.449 291.461 425.137 285.829C449.199 283.425 471.542 276.61 494.975 272.35C529.436 266.091 565.68 265.463 601.368 263.405C628.167 261.86 658.793 257.853 671.596 242.793C680.854 231.906 676.969 217.524 663.927 208.304C650.885 199.085 630.052 195.143 610.807 196.933C600.458 197.894 590.175 200.384 579.827 199.395C573.819 198.818 568.273 197.099 562.792 195.41C520.395 182.27 476.474 169.159 429.412 167.253C352.865 164.127 281.915 190.753 207.34 202.269C195.728 204.059 183.119 205.438 172.15 202.435C160.595 199.265 153.013 191.779 141.437 188.624C135.942 187.122 129.818 186.689 124.416 185.057C109.569 180.566 116.473 174.394 95.8628 178.559C85.0957 180.754 74.2202 184.27 70.754 191.685Z" fill="#EB5757"/>
<g filter="url(#filter0_d)">
<path d="M38 8C38 3.58173 41.5817 0 46 0H614C618.418 0 622 3.58172 622 8V258H38V8Z" fill="white"/>
</g>
<path d="M84.3203 68V56.625H87.5312C88.5208 56.625 89.3958 56.8438 90.1562 57.2812C90.9167 57.7188 91.5026 58.3411 91.9141 59.1484C92.3307 59.9557 92.5417 60.8828 92.5469 61.9297V62.6562C92.5469 63.7292 92.3385 64.6693 91.9219 65.4766C91.5104 66.2839 90.9193 66.9036 90.1484 67.3359C89.3828 67.7682 88.4896 67.9896 87.4688 68H84.3203ZM85.8203 57.8594V66.7734H87.3984C88.5547 66.7734 89.4531 66.4141 90.0938 65.6953C90.7396 64.9766 91.0625 63.9531 91.0625 62.625V61.9609C91.0625 60.6693 90.7578 59.6667 90.1484 58.9531C89.5443 58.2344 88.6849 57.8698 87.5703 57.8594H85.8203ZM98.4216 68.1562C97.2757 68.1562 96.3434 67.7812 95.6247 67.0312C94.9059 66.276 94.5466 65.2682 94.5466 64.0078V63.7422C94.5466 62.9036 94.7054 62.1562 95.0231 61.5C95.346 60.8385 95.794 60.3229 96.3669 59.9531C96.945 59.5781 97.57 59.3906 98.2419 59.3906C99.3408 59.3906 100.195 59.7526 100.804 60.4766C101.414 61.2005 101.718 62.237 101.718 63.5859V64.1875H95.9919C96.0127 65.0208 96.2549 65.6953 96.7184 66.2109C97.1872 66.7214 97.7809 66.9766 98.4997 66.9766C99.0101 66.9766 99.4424 66.8724 99.7966 66.6641C100.151 66.4557 100.461 66.1797 100.726 65.8359L101.609 66.5234C100.901 67.612 99.8382 68.1562 98.4216 68.1562ZM98.2419 60.5781C97.6585 60.5781 97.169 60.7917 96.7731 61.2188C96.3773 61.6406 96.1325 62.2344 96.0387 63H100.273V62.8906C100.231 62.1562 100.034 61.5885 99.6794 61.1875C99.3252 60.7812 98.846 60.5781 98.2419 60.5781ZM108.937 68C108.854 67.8333 108.786 67.5365 108.734 67.1094C108.062 67.8073 107.26 68.1562 106.327 68.1562C105.494 68.1562 104.809 67.9219 104.273 67.4531C103.742 66.9792 103.476 66.3802 103.476 65.6562C103.476 64.776 103.809 64.0938 104.476 63.6094C105.148 63.1198 106.091 62.875 107.304 62.875H108.71V62.2109C108.71 61.7057 108.559 61.3047 108.257 61.0078C107.955 60.7057 107.51 60.5547 106.921 60.5547C106.406 60.5547 105.973 60.6849 105.624 60.9453C105.275 61.2057 105.101 61.5208 105.101 61.8906H103.648C103.648 61.4688 103.796 61.0625 104.093 60.6719C104.395 60.276 104.801 59.9635 105.312 59.7344C105.827 59.5052 106.393 59.3906 107.007 59.3906C107.981 59.3906 108.744 59.6354 109.296 60.125C109.848 60.6094 110.135 61.2786 110.156 62.1328V66.0234C110.156 66.7995 110.255 67.4167 110.452 67.875V68H108.937ZM106.538 66.8984C106.992 66.8984 107.421 66.7812 107.827 66.5469C108.234 66.3125 108.528 66.0078 108.71 65.6328V63.8984H107.577C105.807 63.8984 104.921 64.4167 104.921 65.4531C104.921 65.9062 105.072 66.2604 105.374 66.5156C105.676 66.7708 106.064 66.8984 106.538 66.8984ZM116.827 60.8438C116.608 60.8073 116.371 60.7891 116.116 60.7891C115.168 60.7891 114.525 61.1927 114.187 62V68H112.741V59.5469H114.147L114.171 60.5234C114.645 59.7682 115.317 59.3906 116.187 59.3906C116.468 59.3906 116.681 59.4271 116.827 59.5V60.8438ZM126.616 70.8594C125.694 70.599 124.998 70.1693 124.53 69.5703C124.066 68.9766 123.834 68.1901 123.834 67.2109V65.6562C123.834 64.3906 123.282 63.7578 122.178 63.7578V62.625C123.282 62.625 123.834 61.9948 123.834 60.7344V59.1094C123.845 58.1562 124.077 57.388 124.53 56.8047C124.988 56.2161 125.683 55.7891 126.616 55.5234L126.912 56.4219C125.824 56.7708 125.28 57.6797 125.28 59.1484V60.7266C125.28 61.9089 124.845 62.7318 123.975 63.1953C124.845 63.6641 125.28 64.4948 125.28 65.6875V67.2969C125.295 68.7292 125.84 69.6172 126.912 69.9609L126.616 70.8594ZM132.357 70.8594C131.436 70.599 130.74 70.1693 130.272 69.5703C129.808 68.9766 129.576 68.1901 129.576 67.2109V65.6562C129.576 64.3906 129.024 63.7578 127.92 63.7578V62.625C129.024 62.625 129.576 61.9948 129.576 60.7344V59.1094C129.587 58.1562 129.818 57.388 130.272 56.8047C130.73 56.2161 131.425 55.7891 132.357 55.5234L132.654 56.4219C131.566 56.7708 131.022 57.6797 131.022 59.1484V60.7266C131.022 61.9089 130.587 62.7318 129.717 63.1953C130.587 63.6641 131.022 64.4948 131.022 65.6875V67.2969C131.037 68.7292 131.581 69.6172 132.654 69.9609L132.357 70.8594ZM135.623 59.5469L135.67 60.6094C136.316 59.7969 137.159 59.3906 138.201 59.3906C139.987 59.3906 140.888 60.3984 140.904 62.4141V68H139.459V62.4062C139.454 61.7969 139.313 61.3464 139.037 61.0547C138.766 60.763 138.342 60.6172 137.763 60.6172C137.295 60.6172 136.883 60.7422 136.529 60.9922C136.175 61.2422 135.899 61.5703 135.701 61.9766V68H134.256V59.5469H135.623ZM148.623 68C148.539 67.8333 148.471 67.5365 148.419 67.1094C147.748 67.8073 146.945 68.1562 146.013 68.1562C145.18 68.1562 144.495 67.9219 143.958 67.4531C143.427 66.9792 143.162 66.3802 143.162 65.6562C143.162 64.776 143.495 64.0938 144.162 63.6094C144.833 63.1198 145.776 62.875 146.99 62.875H148.396V62.2109C148.396 61.7057 148.245 61.3047 147.943 61.0078C147.641 60.7057 147.195 60.5547 146.607 60.5547C146.091 60.5547 145.659 60.6849 145.31 60.9453C144.961 61.2057 144.787 61.5208 144.787 61.8906H143.333C143.333 61.4688 143.482 61.0625 143.779 60.6719C144.081 60.276 144.487 59.9635 144.998 59.7344C145.513 59.5052 146.078 59.3906 146.693 59.3906C147.667 59.3906 148.43 59.6354 148.982 60.125C149.534 60.6094 149.82 61.2786 149.841 62.1328V66.0234C149.841 66.7995 149.94 67.4167 150.138 67.875V68H148.623ZM146.224 66.8984C146.677 66.8984 147.107 66.7812 147.513 66.5469C147.919 66.3125 148.214 66.0078 148.396 65.6328V63.8984H147.263C145.492 63.8984 144.607 64.4167 144.607 65.4531C144.607 65.9062 144.758 66.2604 145.06 66.5156C145.362 66.7708 145.75 66.8984 146.224 66.8984ZM153.786 59.5469L153.825 60.4844C154.445 59.7552 155.281 59.3906 156.333 59.3906C157.515 59.3906 158.32 59.8438 158.747 60.75C159.028 60.3438 159.393 60.0156 159.841 59.7656C160.294 59.5156 160.828 59.3906 161.442 59.3906C163.297 59.3906 164.239 60.3724 164.271 62.3359V68H162.825V62.4219C162.825 61.8177 162.687 61.3672 162.411 61.0703C162.135 60.7682 161.672 60.6172 161.021 60.6172C160.484 60.6172 160.039 60.7786 159.685 61.1016C159.331 61.4193 159.125 61.849 159.067 62.3906V68H157.614V62.4609C157.614 61.2318 157.013 60.6172 155.81 60.6172C154.862 60.6172 154.213 61.0208 153.864 61.8281V68H152.419V59.5469H153.786ZM170.286 68.1562C169.14 68.1562 168.208 67.7812 167.489 67.0312C166.77 66.276 166.411 65.2682 166.411 64.0078V63.7422C166.411 62.9036 166.57 62.1562 166.887 61.5C167.21 60.8385 167.658 60.3229 168.231 59.9531C168.809 59.5781 169.434 59.3906 170.106 59.3906C171.205 59.3906 172.059 59.7526 172.669 60.4766C173.278 61.2005 173.583 62.237 173.583 63.5859V64.1875H167.856C167.877 65.0208 168.119 65.6953 168.583 66.2109C169.052 66.7214 169.645 66.9766 170.364 66.9766C170.874 66.9766 171.307 66.8724 171.661 66.6641C172.015 66.4557 172.325 66.1797 172.591 65.8359L173.473 66.5234C172.765 67.612 171.703 68.1562 170.286 68.1562ZM170.106 60.5781C169.523 60.5781 169.033 60.7917 168.637 61.2188C168.242 61.6406 167.997 62.2344 167.903 63H172.137V62.8906C172.096 62.1562 171.898 61.5885 171.544 61.1875C171.19 60.7812 170.71 60.5781 170.106 60.5781ZM174.637 69.9609C175.694 69.6224 176.241 68.7604 176.278 67.375V65.6562C176.278 64.4531 176.749 63.6328 177.692 63.1953C176.749 62.7682 176.278 61.9479 176.278 60.7344V59.1484C176.278 57.6797 175.734 56.7708 174.645 56.4219L174.942 55.5234C175.864 55.7839 176.556 56.2083 177.02 56.7969C177.484 57.3802 177.718 58.1536 177.723 59.1172V60.7578C177.723 62.0026 178.275 62.625 179.379 62.625V63.7578C178.275 63.7578 177.723 64.3906 177.723 65.6562V67.2344C177.723 68.2135 177.486 68.9974 177.012 69.5859C176.543 70.1745 175.853 70.599 174.942 70.8594L174.637 69.9609ZM180.379 69.9609C181.436 69.6224 181.983 68.7604 182.02 67.375V65.6562C182.02 64.4531 182.491 63.6328 183.434 63.1953C182.491 62.7682 182.02 61.9479 182.02 60.7344V59.1484C182.02 57.6797 181.475 56.7708 180.387 56.4219L180.684 55.5234C181.606 55.7839 182.298 56.2083 182.762 56.7969C183.225 57.3802 183.46 58.1536 183.465 59.1172V60.7578C183.465 62.0026 184.017 62.625 185.121 62.625V63.7578C184.017 63.7578 183.465 64.3906 183.465 65.6562V67.2344C183.465 68.2135 183.228 68.9974 182.754 69.5859C182.285 70.1745 181.595 70.599 180.684 70.8594L180.379 69.9609ZM187.019 70.2656L186.199 69.7031C186.689 69.0208 186.944 68.3177 186.965 67.5938V66.2891H188.379V67.4219C188.379 67.9479 188.249 68.474 187.988 69C187.733 69.526 187.41 69.9479 187.019 70.2656Z" fill="#5B5C5F"/>
<rect x="84" y="104" width="481" height="11" rx="5.5" fill="#BDBDBD"/>
<rect x="84" y="133" width="481" height="11" rx="5.5" fill="#BDBDBD"/>
<rect x="84" y="162" width="481" height="11" rx="5.5" fill="#BDBDBD"/>
<rect x="84" y="191" width="481" height="11" rx="5.5" fill="#BDBDBD"/>
<defs>
<filter id="filter0_d" x="34" y="0" width="592" height="266" filterUnits="userSpaceOnUse" color-interpolation-filters="sRGB">
<feFlood flood-opacity="0" result="BackgroundImageFix"/>
<feColorMatrix in="SourceAlpha" type="matrix" values="0 0 0 0 0 0 0 0 0 0 0 0 0 0 0 0 0 0 127 0"/>
<feOffset dy="4"/>
<feGaussianBlur stdDeviation="2"/>
<feColorMatrix type="matrix" values="0 0 0 0 0 0 0 0 0 0 0 0 0 0 0 0 0 0 0.25 0"/>
<feBlend mode="normal" in2="BackgroundImageFix" result="effect1_dropShadow"/>
<feBlend mode="normal" in="SourceGraphic" in2="effect1_dropShadow" result="shape"/>
</filter>
</defs>
</svg>
