<svg width="725" height="496" viewBox="0 0 725 496" fill="none" xmlns="http://www.w3.org/2000/svg">
<g clip-path="url(#clip0)">
<path opacity="0.1" d="M70.7552 376.341C67.6572 382.99 72.0912 390.167 70.553 397.032C68.6104 405.696 57.475 412.439 45.4803 416.742C33.4855 421.045 20.0898 423.659 8.39838 428.294C3.3434 430.294 -1.92823 433.983 0.700359 437.376C1.61026 438.553 3.31451 439.376 4.98265 440.148C39.0388 455.859 81.1323 464.392 123.19 464.118C167.674 463.822 211.233 454.01 255.681 455.137C313.004 456.58 368.45 476.117 425.138 470.486C449.2 468.081 471.543 461.266 494.977 457.006C529.437 450.747 565.681 450.119 601.369 448.061C628.168 446.516 658.794 442.509 671.598 427.449C680.855 416.562 676.97 402.18 663.928 392.961C650.887 383.741 630.053 379.799 610.808 381.59C600.46 382.55 590.176 385.041 579.828 384.051C573.82 383.474 568.274 381.756 562.793 380.066C520.396 366.926 476.475 353.815 429.413 351.909C352.867 348.783 281.916 375.409 207.341 386.925C195.729 388.715 183.12 390.094 172.151 387.091C160.597 383.921 153.014 376.435 141.438 373.28C135.943 371.778 129.819 371.345 124.417 369.713C109.57 365.223 116.474 359.05 95.864 363.215C85.0969 365.41 74.2215 368.926 70.7552 376.341Z" fill="#1C73E7"/>
<path d="M79.2044 149.491C79.2044 149.491 119.471 189.748 96.7525 249.484C74.0339 309.219 135.748 408.555 135.748 408.555C135.748 408.555 135.084 408.461 133.863 408.245C51.1204 393.646 10.0306 299.09 56.0165 228.864C73.1096 202.722 87.148 172.089 79.2044 149.491Z" fill="#1C73E7"/>
<path opacity="0.1" d="M79.2044 149.491C79.2044 149.491 119.471 189.748 96.7525 249.484C74.0339 309.219 135.748 408.555 135.748 408.555C135.748 408.555 135.084 408.461 133.863 408.245C51.1204 393.646 10.0306 299.09 56.0165 228.864C73.1096 202.722 87.148 172.089 79.2044 149.491Z" fill="black"/>
<path d="M79.2043 149.491C79.2043 149.491 101.937 198.838 79.2043 239.094C56.4713 279.351 75.3047 392.325 135.705 408.555" stroke="#535461" stroke-miterlimit="10"/>
<path d="M7.48853 312.309C7.48853 312.309 53.4383 304.996 57.6267 346.163C61.8152 387.329 145.973 393.04 145.973 393.04C145.973 393.04 145.425 393.415 144.392 394.087C74.9076 439.679 8.47786 423.139 18.4867 362.58C22.213 340.047 21.9024 317.45 7.48853 312.309Z" fill="#1C73E7"/>
<path opacity="0.2" d="M7.48853 312.309C7.48853 312.309 53.4383 304.996 57.6267 346.163C61.8152 387.329 145.973 393.04 145.973 393.04C145.973 393.04 145.425 393.415 144.392 394.087C74.9076 439.679 8.47786 423.139 18.4867 362.58C22.213 340.047 21.9024 317.45 7.48853 312.309Z" fill="#F5F5F5"/>
<path d="M7.48853 312.309C7.48853 312.309 43.155 320.136 40.2231 352.559C37.2913 384.983 93.1849 423.846 145.973 393.04" stroke="#535461" stroke-miterlimit="10"/>
<path d="M488.701 407.645H110.711V171.583H159.051L178.939 196.145H488.701V407.645Z" fill="#1C73E7"/>
<path opacity="0.1" d="M488.701 407.645H110.711V171.583H159.051L178.939 196.145H488.701V407.645Z" fill="black"/>
<path d="M351.17 73.5786L181.053 135.096L276.843 399.865L446.96 338.347L351.17 73.5786Z" fill="#F1F1F4"/>
<path d="M261.25 135.547L213.183 152.929L217.273 164.235L265.34 146.853L261.25 135.547Z" fill="white"/>
<path d="M338.83 143.46L233.076 181.212L236.784 191.595L342.538 153.843L338.83 143.46Z" fill="white"/>
<path d="M346.755 165.647L241.001 203.399L244.71 213.782L350.463 176.03L346.755 165.647Z" fill="white"/>
<path d="M354.673 187.834L248.92 225.587L252.628 235.969L358.381 198.217L354.673 187.834Z" fill="white"/>
<path d="M362.598 210.014L256.845 247.767L260.553 258.149L366.306 220.397L362.598 210.014Z" fill="white"/>
<path d="M370.521 232.195L264.768 269.947L268.476 280.329L374.23 242.577L370.521 232.195Z" fill="white"/>
<path d="M378.447 254.382L272.693 292.134L276.401 302.517L382.155 264.764L378.447 254.382Z" fill="white"/>
<path d="M399.043 291.198L371.662 300.972L381.439 328.346L408.819 318.572L399.043 291.198Z" fill="white"/>
<path d="M146.487 88.2438L51.0786 248.765L301.033 397.26L396.442 236.739L146.487 88.2438Z" fill="url(#paint0_linear)"/>
<path d="M148.888 93.0377L56.4377 248.581L298.639 392.469L391.089 236.926L148.888 93.0377Z" fill="#F1F1F4"/>
<path d="M118.552 198.036L92.4302 241.984L102.773 248.129L128.895 204.18L118.552 198.036Z" fill="white"/>
<path d="M182.497 153.236L125.133 249.749L134.613 255.38L191.977 158.868L182.497 153.236Z" fill="white"/>
<path d="M202.753 165.273L145.389 261.785L154.869 267.417L212.233 170.905L202.753 165.273Z" fill="white"/>
<path d="M222.833 176.949L165.563 273.498L175.047 279.12L232.316 182.571L222.833 176.949Z" fill="white"/>
<path d="M243.259 189.335L185.895 285.847L195.375 291.479L252.739 194.967L243.259 189.335Z" fill="white"/>
<path d="M263.515 201.372L206.151 297.884L215.631 303.516L272.995 207.003L263.515 201.372Z" fill="white"/>
<path d="M283.778 213.408L226.414 309.921L235.894 315.552L293.258 219.04L283.778 213.408Z" fill="white"/>
<path d="M322.879 228.228L308.052 253.226L333.055 268.049L347.883 243.052L322.879 228.228Z" fill="white"/>
<path d="M691.94 91.755C691.94 91.3988 691.904 91.0595 691.832 90.737C691.76 90.4146 691.697 90.0416 691.644 89.618C691.509 88.8864 691.355 88.1789 691.182 87.4954C691.095 87.1537 691.006 86.8192 690.915 86.4919C689.879 82.6994 688.028 79.1786 685.492 76.1749L685.058 75.684C684.769 75.3663 684.483 75.0655 684.199 74.7815C683.915 74.4976 683.636 74.2352 683.361 73.9946C683.087 73.7491 682.82 73.5253 682.56 73.3087C682.047 72.89 681.563 72.5362 681.115 72.2474C680.668 71.9586 680.509 71.8503 680.256 71.6987C679.639 71.3332 678.948 71.1088 678.234 71.0417L673.778 70.6086L667.756 70.0165L646.012 61.62L645.153 61.9233C644.517 60.181 643.98 58.4046 643.542 56.6023C644.201 56.3183 644.788 55.8917 645.261 55.3533C645.775 54.9564 646.182 54.4378 646.445 53.8444C646.994 52.5882 645.947 49.9025 646.157 48.3719C646.503 45.91 647.789 43.5275 648.836 41.2966C651.074 36.5027 652.706 31.3118 652.446 26.0486C652.186 20.7855 649.767 15.4501 645.297 12.5045C642.986 10.9811 640.242 10.1653 637.866 8.77911C635.996 7.69616 634.35 6.28832 632.566 5.06819C628.173 2.16306 623.104 0.440621 617.85 0.0675094C612.596 -0.305602 607.335 0.683243 602.575 2.93838C598.055 5.15483 594.199 8.46145 589.931 11.1111C585.663 13.7607 580.637 15.8111 575.647 15.0241C575.576 15.2231 575.525 15.4287 575.495 15.6378L575.076 15.5873C574.217 17.9192 576.326 20.2151 578.268 21.8107C581.951 24.8285 586.132 27.8463 590.942 27.9474C592.798 27.9907 594.762 27.6008 596.452 28.3589C596.818 28.5279 597.163 28.7413 597.477 28.9942C596.407 33.2544 596.544 37.7281 597.872 41.9151C599.199 46.1022 601.665 49.8376 604.995 52.7037L593.888 48.7329C593.888 48.7329 593.426 48.9711 592.704 49.4188L577.272 39.2173C577.272 39.2173 546.342 28.0196 537.749 45.3757C529.155 62.7319 574.982 53.7722 574.982 53.7722L584.789 59.1292C584.464 61.1419 584.844 63.2051 585.865 64.97L612.584 81.3876C607.183 83.0409 598.308 85.7194 596.697 85.7194C594.408 85.7194 588.104 87.9575 584.096 96.9171C580.088 105.877 565.768 149.556 553.167 156.841C540.565 164.125 507.34 212.836 507.34 212.836L507.491 213.219C506.899 213.373 506.319 213.544 505.751 213.732C497.439 216.417 491.85 222.085 488.477 226.669C487.916 227.449 487.568 228.362 487.47 229.318C487.372 230.273 487.527 231.238 487.919 232.115C488.311 232.992 488.926 233.751 489.703 234.316C490.481 234.88 491.392 235.231 492.348 235.333C505.462 236.979 512.626 231.001 516.07 226.438C516.294 226.142 516.504 225.854 516.698 225.572C517.724 226.007 518.873 226.059 519.934 225.716L535.972 212.836C535.972 212.836 523.422 225.11 530.78 236.293L530.224 237.066C517.817 254.643 508.703 274.325 503.324 295.155C503.324 295.155 496.45 300.209 495.879 320.352C495.309 340.495 488.434 372.991 488.434 372.991C488.434 372.991 483.848 411.631 486.715 423.392C486.715 423.392 487.047 423.861 487.654 424.576C487.437 424.828 487.206 425.103 486.932 425.384C484.433 428.07 479.92 431.774 474.655 430.669C466.632 428.987 466.632 442.986 478.093 444.112C485.473 444.834 499.966 448.112 509.362 450.35C510.382 450.61 511.451 450.622 512.477 450.383C513.503 450.144 514.456 449.662 515.257 448.978C516.057 448.293 516.682 447.426 517.077 446.45C517.473 445.474 517.628 444.417 517.529 443.368C516.966 438.351 515.947 432.279 514.092 427.954C513.976 427.687 513.86 427.427 513.738 427.167C514.077 426.857 514.409 426.532 514.749 426.186C514.749 426.186 514.749 401.545 518.757 394.823C518.757 394.823 529.639 343.867 529.069 330.987C528.621 320.879 557.297 281.662 569.783 265.085L569.682 264.457C572.874 260.227 574.896 257.627 574.896 257.627L584.63 318.663C584.63 318.663 589.302 332.106 595.029 339.369C595.029 339.369 619.661 385.849 622.521 400.404C624.687 411.443 629.165 417.97 631.187 420.482C630.948 420.72 630.703 420.958 630.464 421.204C627.857 423.579 624.008 425.962 619.632 425.052C611.638 423.363 611.638 437.362 623.099 438.481C630.479 439.203 644.972 442.48 654.367 444.719C655.388 444.979 656.456 444.99 657.482 444.751C658.508 444.513 659.462 444.031 660.263 443.346C661.063 442.662 661.688 441.795 662.083 440.819C662.478 439.843 662.633 438.786 662.535 437.737C661.885 431.911 660.607 424.662 658.137 420.41C657.93 420.049 657.713 419.71 657.487 419.392C658.359 419.044 659.137 418.497 659.762 417.796C659.762 417.796 644.857 382.485 644.857 372.962C644.857 372.962 638.552 336.56 617.365 323.146C617.365 323.146 619.372 277.626 625.402 252.285C625.551 251.659 625.703 251.045 625.857 250.444C631.28 249.599 636.855 248.466 642.568 246.986L643.138 230.185L646.027 243.628L678.075 224.013C678.075 224.013 677.793 220.482 677.252 215.067C676.977 212.36 676.645 209.183 676.241 205.74C675.923 202.982 675.555 200.058 675.158 197.076C675.057 196.33 674.953 195.579 674.847 194.823C674.428 191.806 673.966 188.752 673.468 185.763C673.28 184.641 673.088 183.532 672.89 182.434C672.63 180.99 672.356 179.546 672.074 178.146C671.934 177.448 671.79 176.76 671.641 176.081C671.492 175.402 671.342 174.738 671.193 174.088C671.044 173.439 670.892 172.801 670.738 172.175L670.507 171.251C670.348 170.645 670.189 170.053 670.03 169.475C669.358 167.081 668.968 164.617 668.868 162.133C668.829 161.17 668.829 160.183 668.868 159.173C668.906 158.162 669.003 157.18 669.157 156.227C669.224 155.746 669.306 155.264 669.402 154.783C669.771 152.832 670.315 150.918 671.027 149.065C671.383 148.136 671.783 147.219 672.226 146.314C673.266 144.199 674.392 141.903 675.519 139.484C676.092 138.276 676.669 137.042 677.252 135.781C677.834 134.52 678.422 133.239 679.014 131.94C684.589 119.594 690.092 105.833 691.565 96.8016C691.716 95.8486 691.832 94.9533 691.89 94.1086C691.958 93.3261 691.975 92.5398 691.94 91.755Z" fill="url(#paint1_linear)"/>
<path d="M596.264 54.9851L577.373 42.2063C577.373 42.2063 547.368 31.0952 539.034 48.3142C530.701 65.5331 575.141 56.6457 575.141 56.6457L594.033 67.2009L596.264 54.9851Z" fill="#F7BBC3"/>
<path d="M487.211 3.12695L390.159 155.843L627.958 306.893L725.009 154.177L487.211 3.12695Z" fill="#F1F1F4"/>
<path d="M453.754 107.173L426.332 150.323L436.487 156.773L463.909 113.623L453.754 107.173Z" fill="white"/>
<path d="M519.013 64.3039L458.794 159.062L468.101 164.974L528.32 70.216L519.013 64.3039Z" fill="white"/>
<path d="M538.902 76.9342L478.683 171.692L487.99 177.604L548.209 82.8462L538.902 76.9342Z" fill="white"/>
<path d="M558.789 89.5684L498.57 184.326L507.877 190.239L568.097 95.4805L558.789 89.5684Z" fill="white"/>
<path d="M580.301 105.797L519.663 200.1L528.925 206.054L589.563 111.75L580.301 105.797Z" fill="white"/>
<path d="M598.565 114.833L538.346 209.591L547.654 215.503L607.873 120.745L598.565 114.833Z" fill="white"/>
<path d="M620.123 131.317L559.485 225.62L568.748 231.573L629.386 137.27L620.123 131.317Z" fill="white"/>
<path d="M657.334 143.844L641.742 168.377L666.282 183.965L681.873 159.431L657.334 143.844Z" fill="white"/>
<path d="M652.15 444.437C643.037 442.213 628.977 438.964 621.821 438.25C610.707 437.138 610.707 423.254 618.484 424.922C622.702 425.825 626.428 423.478 628.963 421.103C629.738 420.364 630.464 419.576 631.136 418.742C632.062 417.635 633.334 416.872 634.747 416.576C638.914 415.666 647.587 414.295 652.923 417.168C654.159 417.93 655.159 419.02 655.812 420.316C658.209 424.568 659.422 431.752 660.08 437.535C660.186 438.56 660.044 439.596 659.666 440.554C659.288 441.513 658.685 442.367 657.907 443.044C657.13 443.721 656.201 444.2 655.199 444.443C654.197 444.685 653.151 444.683 652.15 444.437Z" fill="#B77983"/>
<path d="M511.586 449.996C502.472 447.772 488.412 444.524 481.256 443.809C470.142 442.697 470.142 428.814 477.92 430.481C482.975 431.579 487.387 427.897 489.806 425.24C490.102 424.915 490.369 424.604 490.6 424.316C491.526 423.208 492.798 422.445 494.211 422.15C498.378 421.24 507.051 419.868 512.387 422.742C513.947 423.586 515.196 425.435 516.193 427.796C517.991 432.084 518.98 438.105 519.529 443.08C519.639 444.107 519.499 445.146 519.121 446.109C518.743 447.071 518.139 447.928 517.36 448.606C516.58 449.285 515.648 449.766 514.643 450.008C513.638 450.25 512.589 450.246 511.586 449.996Z" fill="#B77983"/>
<path opacity="0.1" d="M516.172 427.781C502.906 441.448 491.532 427.528 489.806 425.233C490.102 424.908 490.369 424.597 490.601 424.308C491.526 423.201 492.798 422.438 494.211 422.143C498.378 421.233 507.051 419.861 512.388 422.735C513.926 423.543 515.175 425.391 516.172 427.781Z" fill="black"/>
<path opacity="0.1" d="M655.804 420.294C650.027 424.222 630.71 423.254 630.71 423.254C630.075 422.576 629.491 421.852 628.962 421.088C629.737 420.354 630.463 419.571 631.136 418.742C632.062 417.635 633.334 416.872 634.747 416.576C638.913 415.666 647.586 414.295 652.923 417.168C654.153 417.925 655.15 419.007 655.804 420.294Z" fill="black"/>
<path d="M656.823 417.702C652.93 422.698 630.71 421.594 630.71 421.594C630.71 421.594 624.045 414.93 621.264 400.483C618.484 386.037 594.596 339.939 594.596 339.939C589.043 332.719 584.594 319.385 584.594 319.385L575.148 258.84C575.148 258.84 529.589 318.829 530.145 331.608C530.701 344.386 520.143 394.917 520.143 394.917C516.251 401.581 516.251 426.02 516.251 426.02C501.808 441.015 489.582 423.24 489.582 423.24C486.802 411.573 491.25 373.251 491.25 373.251C491.25 373.251 497.916 341.037 498.472 321.038C499.028 301.039 505.693 296.043 505.693 296.043C510.883 275.435 519.719 255.92 531.784 238.423C535.142 233.615 537.359 231.052 537.359 231.052L627.366 241.607C625.922 244.495 624.63 248.632 623.496 253.527C617.646 278.658 615.704 323.818 615.704 323.818C636.263 337.16 642.373 373.258 642.373 373.258C642.373 382.701 656.823 417.702 656.823 417.702Z" fill="#8499F0"/>
<g opacity="0.05">
<path opacity="0.05" d="M570.187 266.233L569.032 258.833C569.032 258.833 523.472 318.822 524.028 331.6C524.584 344.379 514.034 394.917 514.034 394.917C510.142 401.581 510.142 426.02 510.142 426.02C507.116 429.16 504.184 430.864 501.476 431.593C505.852 432.741 511.174 431.904 516.843 426.02C516.843 426.02 516.843 401.581 520.735 394.917C520.735 394.917 531.293 344.379 530.737 331.593C530.268 321.601 558.084 282.68 570.187 266.233Z" fill="black"/>
<path opacity="0.05" d="M642.929 373.258C642.929 373.258 636.819 337.16 616.26 323.825C616.26 323.825 618.203 278.673 624.052 253.534C625.193 248.639 626.471 244.509 627.923 241.614L537.922 231.03C537.922 231.03 537.713 231.276 537.33 231.752L621.264 241.593C619.82 244.48 618.528 248.617 617.394 253.512C611.544 278.644 609.602 323.803 609.602 323.803C630.154 337.16 636.263 373.258 636.263 373.258C636.263 382.701 650.706 417.695 650.706 417.695C648.417 420.641 639.751 421.464 633.021 421.644C638.357 421.782 654.151 421.832 657.371 417.695C657.379 417.702 642.929 382.701 642.929 373.258Z" fill="black"/>
</g>
<path d="M520.699 223.291C520.027 224.933 519.141 226.48 518.063 227.89C514.72 232.387 507.773 238.344 495.049 236.712C494.113 236.591 493.225 236.23 492.47 235.664C491.716 235.098 491.12 234.346 490.742 233.482C490.364 232.618 490.217 231.671 490.313 230.732C490.41 229.794 490.748 228.897 491.294 228.128C494.558 223.579 499.959 217.955 508.047 215.291C510.345 214.527 512.726 214.042 515.139 213.847L520.699 223.291Z" fill="#F7BBC3"/>
<path d="M638.032 67.9445L593.476 51.6497C593.476 51.6497 580.695 58.3134 585.699 67.7568L629.027 94.975L638.032 67.9445Z" fill="#D39999"/>
<path opacity="0.1" d="M638.032 67.9445L593.476 51.6497C593.476 51.6497 580.695 58.3134 585.699 67.7568L629.027 94.975L638.032 67.9445Z" fill="black"/>
<path d="M639.6 41.0945C639.6 41.0945 639.043 67.2009 650.713 76.0884C662.383 84.9758 616.823 89.9718 616.823 89.9718C616.823 89.9718 624.045 63.3095 616.823 49.4261C609.602 35.5426 639.6 41.0945 639.6 41.0945Z" fill="#F7BBC3"/>
<path opacity="0.1" d="M627.374 241.614C625.929 244.502 624.637 248.639 623.503 253.534C569.769 261.735 532.369 239.39 532.369 239.39C532.167 239.066 531.972 238.748 531.791 238.43C535.149 233.622 537.366 231.059 537.366 231.059L627.374 241.614Z" fill="black"/>
<path opacity="0.1" d="M520.699 223.291C520.027 224.933 519.141 226.48 518.063 227.89C512.922 227.038 508.806 217.204 508.047 215.284C510.345 214.52 512.726 214.035 515.139 213.84L520.699 223.291Z" fill="black"/>
<path d="M644.041 64.4213L624.037 71.641L615.704 82.7521C615.704 82.7521 598.481 88.3041 596.257 88.3041C594.033 88.3041 587.923 90.5277 584.031 99.4152C580.139 108.303 566.259 151.614 554.033 158.833C541.807 166.053 509.585 214.425 509.585 214.425C509.585 214.425 515.139 229.42 521.811 227.204L537.366 214.425C537.366 214.425 525.14 226.648 532.369 237.752C532.369 237.752 577.929 264.97 640.69 248.307L641.246 231.644L644.026 244.971L675.187 225.507C675.187 225.507 672.399 189.654 667.38 171.403C665.307 163.73 666.076 155.566 669.547 148.415C677.613 131.608 690.063 103.538 688.546 93.3001C686.755 81.236 679.938 75.9728 677.339 74.4134C676.743 74.0529 676.074 73.8308 675.382 73.7636L665.214 72.7456L644.041 64.4213Z" fill="#D39999"/>
<path opacity="0.05" d="M609.869 120.251C609.869 120.251 598.755 171.908 586.537 180.24C574.318 188.571 541.533 215.233 540.421 219.681" fill="black"/>
<path d="M604.872 118.583C604.872 118.583 593.758 170.24 581.54 178.572C569.321 186.903 536.536 213.566 535.424 218.035" fill="#D39999"/>
<path opacity="0.1" d="M615.43 82.4778C615.43 82.4778 653.768 69.6989 664.875 73.0344L615.43 82.4778Z" fill="black"/>
<g opacity="0.05">
<path opacity="0.05" d="M669.489 148.422C677.555 131.615 690.005 103.545 688.488 93.3073C686.698 81.2432 679.881 75.9801 677.281 74.4206C676.685 74.0601 676.017 73.838 675.324 73.7708L670.991 73.3376C671.444 73.4467 671.877 73.6244 672.276 73.8647C674.876 75.453 681.664 80.6873 683.484 92.7514C685 102.982 672.551 131.059 664.484 147.867C661.014 155.017 660.245 163.181 662.318 170.854C667.373 189.105 670.124 224.958 670.124 224.958L643.333 241.701L644.012 244.957L675.187 225.507C675.187 225.507 672.399 189.654 667.38 171.403C665.291 163.739 666.04 155.578 669.489 148.422Z" fill="black"/>
<path opacity="0.05" d="M660.152 72.2042L664.969 72.6806L644.041 64.4213L642.163 65.1L660.152 72.2042Z" fill="black"/>
</g>
<path opacity="0.05" d="M604.872 172.464C604.872 172.464 622.095 163.021 627.648 165.244C633.202 167.468 653.761 164.688 653.761 164.688" fill="black"/>
<path opacity="0.05" d="M637.635 48.0398C637 42.4735 639.578 43.3182 639.578 43.3182C639.578 43.3182 609.573 37.7662 616.802 51.6497C618.607 55.1296 619.51 59.4036 619.849 63.8654H620.131C628.522 63.8726 633.382 54.552 637.635 48.0398Z" fill="black"/>
<path d="M620.153 61.6417C633.346 61.6417 644.041 50.949 644.041 37.759C644.041 24.5689 633.346 13.8762 620.153 13.8762C606.959 13.8762 596.264 24.5689 596.264 37.759C596.264 50.949 606.959 61.6417 620.153 61.6417Z" fill="#F7BBC3"/>
<path opacity="0.1" d="M646.222 44.8271C648.388 40.0765 649.977 34.9217 649.71 29.6657C649.442 24.4098 647.11 19.1467 642.777 16.2299C640.539 14.721 637.895 13.9124 635.556 12.5406C633.743 11.4649 632.14 10.0715 630.414 8.8586C626.18 5.98075 621.261 4.2699 616.154 3.89851C611.047 3.52713 605.933 4.50834 601.326 6.74323C596.943 8.90914 593.202 12.223 589.05 14.8509C584.898 17.4789 580.038 19.5076 575.192 18.7279C574.362 21.0382 576.405 23.3196 578.29 24.9008C581.865 27.8969 585.916 30.8859 590.566 30.987C592.372 31.0303 594.271 30.6404 595.91 31.3985C597.015 32.0061 597.952 32.8764 598.64 33.9326C600.885 36.9126 602.786 40.1361 604.309 43.542C604.93 44.9354 605.565 46.4299 606.851 47.2746C609.017 48.6463 611.783 47.5056 614.325 47.4045C618.282 47.2529 621.835 49.7365 624.767 52.4078C627.699 55.0791 630.479 58.1113 634.155 59.5192C636.913 60.566 642.431 60.5299 643.839 57.2305C644.366 55.9887 643.355 53.3247 643.564 51.8013C643.954 49.3972 645.211 47.0435 646.222 44.8271Z" fill="black"/>
<path d="M646.778 44.2712C648.944 39.5206 650.533 34.3658 650.266 29.1098C649.999 23.8539 647.666 18.5908 643.333 15.674C641.095 14.1651 638.451 13.3565 636.112 11.9847C634.299 10.909 632.696 9.5156 630.97 8.30269C626.736 5.42484 621.817 3.71399 616.71 3.34261C611.603 2.97122 606.489 3.95243 601.882 6.18732C597.499 8.35323 593.758 11.6671 589.606 14.295C585.454 16.923 580.594 18.9517 575.748 18.172C574.918 20.4823 576.961 22.7637 578.846 24.3448C582.421 27.341 586.472 30.33 591.122 30.431C592.928 30.4744 594.827 30.0845 596.466 30.8426C597.571 31.4501 598.508 32.3205 599.196 33.3767C601.441 36.3567 603.342 39.5802 604.865 42.9861C605.486 44.3795 606.121 45.874 607.407 46.7187C609.573 48.0904 612.339 46.9497 614.881 46.8486C618.838 46.697 622.391 49.1806 625.323 51.8519C628.255 54.5232 631.035 57.5554 634.711 58.9633C637.469 60.0101 642.987 59.974 644.395 56.6746C644.922 55.4328 643.911 52.7688 644.12 51.2454C644.51 48.8485 645.767 46.4876 646.778 44.2712Z" fill="#9B6C7A"/>
<path d="M488.701 417.666H110.711V181.604H159.051L178.939 206.165H488.701V417.666Z" fill="#1C73E7"/>
<path d="M132.137 441.217C132.137 441.217 115.838 437.961 111.491 433.615C107.144 429.268 87.5884 421.666 85.4147 427.117C83.2411 432.568 56.0814 451.014 74.5826 454.277C93.0839 457.541 118.041 458.609 123.479 456.443C128.916 454.277 132.137 441.217 132.137 441.217Z" fill="#A8A8A8"/>
<path opacity="0.2" d="M74.5537 452.234C93.026 455.49 118.012 456.566 123.45 454.4C127.588 452.747 130.462 444.798 131.596 441.094L132.137 441.21C132.137 441.21 128.88 454.248 123.471 456.414C118.063 458.58 93.0477 457.497 74.5754 454.248C69.246 453.31 67.7222 451.101 68.2927 448.299C68.726 450.133 70.5819 451.534 74.5537 452.234Z" fill="black"/>
<path d="M468.929 471.078C468.929 471.078 444.066 466.103 437.429 459.475C430.793 452.848 400.961 441.246 397.646 449.534C394.332 457.822 352.874 485.993 381.037 490.968C409.201 495.942 447.344 497.595 455.634 494.282C463.924 490.968 468.929 471.078 468.929 471.078Z" fill="#A8A8A8"/>
<path opacity="0.2" d="M381.073 487.885C409.237 492.859 447.38 494.513 455.67 491.199C461.982 488.672 466.373 476.543 468.106 470.904L468.936 471.078C468.936 471.078 463.961 490.939 455.656 494.274C447.351 497.61 409.237 495.935 381.059 490.961C372.92 489.517 370.595 486.152 371.476 481.893C372.184 484.672 375.015 486.817 381.073 487.885Z" fill="black"/>
<path opacity="0.1" d="M337.947 292.412H254.179V306.851H337.947V292.412Z" fill="black"/>
</g>
<defs>
<linearGradient id="paint0_linear" x1="348.74" y1="316.996" x2="98.8095" y2="168.445" gradientUnits="userSpaceOnUse">
<stop stop-color="#808080" stop-opacity="0.25"/>
<stop offset="0.54" stop-color="#808080" stop-opacity="0.12"/>
<stop offset="1" stop-color="#808080" stop-opacity="0.1"/>
</linearGradient>
<linearGradient id="paint1_linear" x1="201549" y1="330263" x2="201549" y2="49111.4" gradientUnits="userSpaceOnUse">
<stop stop-color="#808080" stop-opacity="0.25"/>
<stop offset="0.54" stop-color="#808080" stop-opacity="0.12"/>
<stop offset="1" stop-color="#808080" stop-opacity="0.1"/>
</linearGradient>
<clipPath id="clip0">
<rect width="725" height="496" fill="white"/>
</clipPath>
</defs>
</svg>
