<svg width="128" height="128" viewBox="0 0 128 128" fill="none" xmlns="http://www.w3.org/2000/svg">
<path d="M32 0C27.6 0 24 3.6 24 8V120C24 124.4 27.6 128 32 128H112C116.4 128 120 124.4 120 120V32L88 0H32Z" fill="#E2E5E7"/>
<path d="M96 32H120L88 0V24C88 28.4 91.6 32 96 32Z" fill="#B0B7BD"/>
<path d="M120 56L96 32H120V56Z" fill="#CAD1D8"/>
<path d="M104 104C104 106.2 102.2 108 100 108H12C9.8 108 8 106.2 8 104V64C8 61.8 9.8 60 12 60H100C102.2 60 104 61.8 104 64V104Z" fill="#F15642"/>
<path d="M25.436 75.7881C25.436 74.7321 26.268 73.5801 27.608 73.5801H34.996C39.156 73.5801 42.9 76.3641 42.9 81.7001C42.9 86.7561 39.156 89.5721 34.996 89.5721H29.656V93.7961C29.656 95.2041 28.76 96.0001 27.608 96.0001C26.552 96.0001 25.436 95.2041 25.436 93.7961V75.7881ZM29.656 77.6081V85.5761H34.996C37.14 85.5761 38.836 83.6841 38.836 81.7001C38.836 79.4641 37.14 77.6081 34.996 77.6081H29.656Z" fill="white"/>
<path d="M49.1641 96.0002C48.1081 96.0002 46.9561 95.4242 46.9561 94.0202V75.8522C46.9561 74.7042 48.1081 73.8682 49.1641 73.8682H56.4881C71.1041 73.8682 70.7841 96.0002 56.7761 96.0002H49.1641ZM51.1801 77.7722V92.1002H56.4881C65.1241 92.1002 65.5081 77.7722 56.4881 77.7722H51.1801Z" fill="white"/>
<path d="M75.9679 78.028V83.112H84.1239C85.2759 83.112 86.4279 84.264 86.4279 85.38C86.4279 86.436 85.2759 87.3 84.1239 87.3H75.9679V94.016C75.9679 95.136 75.1719 95.996 74.0519 95.996C72.6439 95.996 71.7839 95.136 71.7839 94.016V75.848C71.7839 74.7 72.6479 73.864 74.0519 73.864H85.2799C86.6879 73.864 87.5199 74.7 87.5199 75.848C87.5199 76.872 86.6879 78.024 85.2799 78.024H75.9679V78.028Z" fill="white"/>
<path d="M100 108H24V112H100C102.2 112 104 110.2 104 108V104C104 106.2 102.2 108 100 108Z" fill="#CAD1D8"/>
</svg>
