<svg width="128" height="128" viewBox="0 0 128 128" fill="none" xmlns="http://www.w3.org/2000/svg">
<g clip-path="url(#clip0)">
<path d="M17.1205 7.99969L17.1074 119.992C17.1069 124.391 20.7057 127.99 25.1046 127.991L102.88 128C107.281 128.001 110.882 124.401 110.882 120L110.893 29.4718C110.893 27.0156 109.917 24.6598 108.181 22.9229L87.9825 2.71968C86.2459 0.98277 83.8906 0.00677604 81.4344 0.00652508L25.1219 5.24816e-08C20.7215 -0.000501873 17.121 3.59931 17.1205 7.99969Z" fill="url(#paint0_linear)"/>
<path d="M86.8112 51.5071H41.1912C38.393 51.5071 36.1243 53.7783 36.1243 56.5765V104.653C36.1243 107.452 38.393 109.72 41.1912 109.72H86.8112C89.6094 109.72 91.8781 107.452 91.8781 104.653V56.5765C91.8781 53.7783 89.6094 51.5071 86.8112 51.5071ZM82.5202 68.6975H69.5944C68.5843 68.6975 67.7654 67.8786 67.7654 66.8685V60.8647C67.7654 59.8546 68.5843 59.0357 69.5944 59.0357H82.5202C83.5304 59.0357 84.3493 59.8546 84.3493 60.8647V66.8685C84.3493 67.8786 83.5304 68.6975 82.5202 68.6975ZM69.5944 76.2264H82.5202C83.5304 76.2264 84.3493 77.0453 84.3493 78.0554V83.1723C84.3493 84.1824 83.5304 85.0013 82.5202 85.0013H69.5944C68.5843 85.0013 67.7654 84.1824 67.7654 83.1723V78.0554C67.7656 77.0453 68.5845 76.2264 69.5944 76.2264ZM58.4077 85.0011H45.4819C44.4718 85.0011 43.6529 84.1822 43.6529 83.172V78.0552C43.6529 77.045 44.4718 76.2261 45.4819 76.2261H58.4077C59.4179 76.2261 60.2368 77.045 60.2368 78.0552V83.172C60.2368 84.1822 59.4179 85.0011 58.4077 85.0011ZM60.2368 60.865V66.8688C60.2368 67.8789 59.4179 68.6978 58.4077 68.6978H45.4819C44.4718 68.6978 43.6529 67.8789 43.6529 66.8688V60.865C43.6529 59.8548 44.4718 59.036 45.4819 59.036H58.4077C59.4179 59.036 60.2368 59.8548 60.2368 60.865ZM45.4819 92.5299H58.4077C59.4179 92.5299 60.2368 93.3488 60.2368 94.359V100.363C60.2368 101.373 59.4179 102.192 58.4077 102.192H45.4819C44.4718 102.192 43.6529 101.373 43.6529 100.363V94.359C43.6532 93.3488 44.472 92.5299 45.4819 92.5299ZM67.7656 100.362V94.3587C67.7656 93.3486 68.5845 92.5297 69.5947 92.5297H82.5205C83.5306 92.5297 84.3495 93.3486 84.3495 94.3587V100.362C84.3495 101.373 83.5306 102.191 82.5205 102.191H69.5944C68.5845 102.191 67.7656 101.373 67.7656 100.362Z" fill="#EBEFF0"/>
<path d="M87.9753 2.71689C86.7857 1.52733 85.3056 0.695134 83.7019 0.288574V26.3691L110.889 53.5559V29.466C110.889 27.0098 109.913 24.6543 108.176 22.9174L87.9753 2.71689Z" fill="url(#paint1_linear)"/>
<path d="M110.614 27.2196C110.644 27.3483 110.671 27.4733 110.696 27.594H86.1901C84.455 27.594 83.0481 26.1874 83.0481 24.452V0.150269C83.2396 0.184399 83.4409 0.224303 83.6484 0.270229C85.4752 0.674279 87.1408 1.61363 88.4639 2.93646L107.952 22.425C109.27 23.7428 110.195 25.4039 110.614 27.2196Z" fill="url(#paint2_linear)"/>
<path d="M110.889 112.235V119.995C110.889 124.395 107.288 127.996 102.888 127.996H25.1122C20.7131 127.996 17.114 124.396 17.114 119.997V112.235H110.889Z" fill="url(#paint3_linear)"/>
</g>
<defs>
<linearGradient id="paint0_linear" x1="39.4529" y1="49.9002" x2="100.335" y2="110.782" gradientUnits="userSpaceOnUse">
<stop stop-color="#28A265"/>
<stop offset="1" stop-color="#28895E"/>
</linearGradient>
<linearGradient id="paint1_linear" x1="102.927" y1="43.6037" x2="93.2648" y2="15.3704" gradientUnits="userSpaceOnUse">
<stop stop-color="#108372" stop-opacity="0"/>
<stop offset="1" stop-color="#108372"/>
</linearGradient>
<linearGradient id="paint2_linear" x1="86.1543" y1="14.743" x2="97.3776" y2="25.9665" gradientUnits="userSpaceOnUse">
<stop stop-color="#91D1B2"/>
<stop offset="1" stop-color="#28A265"/>
</linearGradient>
<linearGradient id="paint3_linear" x1="64.0014" y1="116.376" x2="64.0014" y2="128.821" gradientUnits="userSpaceOnUse">
<stop stop-color="#108372" stop-opacity="0"/>
<stop offset="1" stop-color="#108372"/>
</linearGradient>
<clipPath id="clip0">
<rect width="128" height="128" fill="white"/>
</clipPath>
</defs>
</svg>
